<?xml version="1.0" encoding="utf-8"?>
<!-- Generator: Adobe Illustrator 24.0.0, SVG Export Plug-In . SVG Version: 6.00 Build 0)  -->
<svg version="1.1" id="Layer_1" xmlns="http://www.w3.org/2000/svg" xmlns:xlink="http://www.w3.org/1999/xlink" x="0px" y="0px"
	 viewBox="0 0 238.5 171.8" style="enable-background:new 0 0 238.5 171.8;" xml:space="preserve">
<style type="text/css">
	.st0{fill:#522583;}
	.st1{fill:#00975F;}
</style>
<g>
	<g>
		<g>
			<path class="st0" d="M22.5,86h6.8v2.9c1-2,3.5-3.4,6.7-3.4c5.6,0,8.8,3.6,8.8,9.5v13.9H38V95.8c0-2.6-1.5-4.3-4.2-4.3
				c-2.6,0-4.5,1.9-4.5,4.5v12.8h-6.8V86z"/>
			<path class="st0" d="M59.3,85.6c3.5,0,6.2,1.4,6.8,3.4v-3h6.8v22.9h-6.8v-3c-0.6,2-3.3,3.4-6.8,3.4c-6.5,0-11.3-5.2-11.3-11.8
				C47.9,90.9,52.8,85.6,59.3,85.6z M60.5,103.2c3.3,0,6-2.5,6-5.7s-2.7-5.7-6-5.7s-5.8,2.5-5.8,5.7S57.2,103.2,60.5,103.2z"/>
			<path class="st0" d="M79.1,92.1h-3V86h3v-8.8h6.6V86h5v6.1h-5v16.7h-6.6V92.1z"/>
			<path class="st0" d="M93.1,86h6.9v13.1c0,3.1,1.9,4.2,4.2,4.2s4.2-1.1,4.2-4.2V86h6.9v13.7c0,6.7-5.2,9.8-11,9.8s-11-3.1-11-9.8
				V86H93.1z"/>
			<path class="st0" d="M119.6,86h6.8v3.1c1-2.3,3.5-3.6,6.6-3.6c0.6,0,1.4,0.1,1.8,0.1V92c-0.6-0.1-1.4-0.2-2.3-0.2
				c-3.9,0-6.1,2.2-6.1,5.9v11.2h-6.8V86z"/>
			<path class="st0" d="M147.6,85.6c3.5,0,6.2,1.4,6.8,3.4v-3h6.8v22.9h-6.7v-3c-0.6,2-3.3,3.4-6.8,3.4c-6.5,0-11.3-5.2-11.3-11.8
				C136.3,90.9,141.2,85.6,147.6,85.6z M148.9,103.2c3.3,0,6-2.5,6-5.7s-2.7-5.7-6-5.7s-5.8,2.5-5.8,5.7S145.6,103.2,148.9,103.2z"
				/>
			<path class="st0" d="M165.8,77.2h6.8v31.6h-6.8V77.2z"/>
			<path class="st0" d="M79.1,117.6h6.8v3c0.6-2,3.3-3.4,6.8-3.4c6.5,0,11.3,5.2,11.3,11.8s-4.9,11.8-11.3,11.8
				c-3.5,0-6.2-1.4-6.8-3.4v11.8h-6.8V117.6z M91.4,134.8c3.3,0,5.8-2.5,5.8-5.7c0-3.2-2.5-5.7-5.8-5.7s-6,2.5-6,5.7
				C85.4,132.3,88.1,134.8,91.4,134.8z"/>
			<path class="st0" d="M118.8,116.9c7,0,12.7,5.4,12.7,12.1s-5.7,12.1-12.7,12.1c-7.1,0-12.7-5.4-12.7-12.1
				S111.8,116.9,118.8,116.9z M118.8,135.1c3.3,0,5.9-2.6,5.9-6c0-3.3-2.6-6-5.9-6c-3.4,0-5.9,2.7-5.9,6
				C112.9,132.4,115.5,135.1,118.8,135.1z"/>
			<path class="st0" d="M131.9,117.6h6.3l4,12.8l3.9-12.8h5.3l3.9,12.8l4-12.8h6.3l-7.3,22.9h-5.6l-4-13.1l-4,13.1h-5.6L131.9,117.6
				z"/>
			<path class="st0" d="M166.2,129c0-7.3,5.3-12,12.4-12c7.1,0,11.8,5.2,11.8,11.6c0,0,0,1.1-0.1,2.2H173c0.1,2.7,2.5,4.5,6.1,4.5
				c2.4,0,4-0.7,5.6-2.2l3.9,3.8c-3,3.1-6.4,4.2-9.8,4.2c-7.4,0-12.5-4.7-12.5-11.8L166.2,129L166.2,129z M183.5,126.4
				c0-2.1-2.2-3.8-4.9-3.8c-3,0-5.4,1.7-5.5,3.8H183.5z"/>
			<path class="st0" d="M193.6,117.6h6.8v3.1c1-2.3,3.5-3.6,6.6-3.6c0.6,0,1.4,0.1,1.8,0.1v6.4c-0.6-0.1-1.4-0.2-2.3-0.2
				c-3.9,0-6.1,2.2-6.1,5.9v11.2h-6.8V117.6z"/>
		</g>
	</g>
	<path class="st1" d="M181.9,48.4c4-4.7,8.6,2.7,7.4,5.7c-1.8,4.6-5.2,4.6-10,3.5c-5.1-1-6.5-5.1-4.8-9.4c1-3,1.5-4.9,4.3-6.2
		c1.2-0.6,2.7-0.7,4.1-0.8c1.2,0,2.1-0.5,3.2-0.6c2.6-0.2,5.7,2.5,7.3,4.3c2.3,2.6,2.4,4.7,2.6,8.1c0.1,3-0.7,3.7-2.5,6
		c-1,1.3-2.4,2.3-3.6,3c-0.9,0.7-2,0.8-3.1,1.2c-2.8,0.8-1.9,5.7-1.6,8.2c0.3,2.6,0.3,5.1,1.9,7.4c0.4,0.4,1.1,0.7,1.4,1.2
		c0.5,0.9-0.2,1.6,1,1.9c1.7,0.4,1.7-1.4,1.8-2.4c0.1-2.1,0.4-4.7-0.2-6.7c-0.3-1.1-0.7-2.4-1.2-3.4c-0.6-1.1-2.8-2.3-1.7-3.4
		c1.3-1.3,2.7-1,4.2-2.1c0.6-0.4,1.3-0.4,2-0.8c1.4-0.8,1.4-2.4,2.2-3.7c0.6-0.9,1.7-2.8,2.5-3.2c0.5-0.3,1.9-0.4,2.5-0.1
		c0.6,0.3,0.8,1.1,1.4,1.6c1,0.8,2.2,0.6,3.4,0.8c1.3,0.2,2.1,0.9,3.2,1.5c1.1,0.6,2.3,0.7,3.5,0.5c0.7-0.1,2.6-0.9,2.3-1.9
		c-1.4-0.6-2.9-1.2-4-2.4s-2.2-1.6-3.5-2.3c-1.6-0.8-2.6-1.1-4.3-0.5c-1.5,0.5-3.6,1-4-1.1c-0.1-0.8,0.1-1.8,0-2.6
		c-0.1-0.7-0.6-1.4-0.7-2.1c-0.1-1,0-1.5-0.5-2.4c-0.3-0.6-1-1-1.3-1.6c-0.6-1.2,0.9-2.8,1.8-3.6c0.6-0.5,1.3-0.4,2-0.9
		c0.5-0.4,0.8-1,1.1-1.5c0.5-0.7,0.9-0.9,1.5-1.4c0.7-0.5,0.8-1.2,1-2.1c0.2-0.9,0.2-1.5,0.7-2.3c0.4-0.7,1.2-1.5,1.4-2.3
		c-1.4-0.6-3.3-0.6-4.4,0.4c-1,0.9-2.8,1.3-3.4,2.5c-1.2,2.4-0.6,6.7-3.3,8.3c-3.3,1.9-5.4-2-7.7-3.5c-1.3-0.9-2.6-1.1-4-0.3
		c-1.9,1.1-2.7,0.2-2.7-2c0-2.5,0.2-5.1-0.7-7.4c-0.4-1.1-1.2-1.6-2-2.4c-0.7-0.8-1-1.6-2.1-2c-0.4,1.5-0.3,3.3-0.5,4.9
		c-0.2,1.5-0.4,3.6-0.1,5.1c0.2,1.1,1.3,2.8,1.9,3.7c0.4,0.6,1.1,0.9,0.7,1.9c-0.3,1-0.9,0.7-1.9,0.8c-1.4,0.2-2.5,1.1-3.3,2.4
		c-0.8,1.2-1,2.7-2.9,2.3c-1.4-0.3-2-1.2-3.3-1.9c-0.6-0.3-1.4-0.1-2-0.3c-0.8-0.3-1.3-1.3-2.2-1.2c-1.6,0.1-2.4,0.2-4-0.3
		c-0.9-0.3-2.6-0.6-3.5-0.2c-1,0.4-0.6,0.7,0.1,1.4c0.8,0.8,1.7,0.8,2.6,1.5c1,0.7,1.8,2.4,3,2.8c2.3,0.8,6.6-0.5,8.6,1.3
		c1.2,1,0.6,4,0.8,5.4c0.2,1.2,1.1,2.2,1.4,3.4c0.4,2.4-4.3,3.9-6.2,5c-1.1,0.8-2.7,1-3.9,2c-1,0.7-2.1,1.8-3,2.7
		c-2.9,2.9,2.2,3.2,4.3,2.7c1.5-0.4,1.8-3,3.2-3.6c1.5-0.5,2.8-0.6,4-1.9c0.6-0.7,1.8-2.9,2.9-2.9c1.6-0.1,1.4,1.9,3.4,2
		c0.6,0,1.1-0.5,1.7-0.7c0.5-0.1,1,1.5,1.7,1.5c1.2,0,3.1-1.5,4.4-1.9c2.6-0.6,3.8-0.3,5.8-2.2c2.9-2.7,2.5-4.7,2.6-7.4
		s-1.4-4.4-4.3-6.3c-4.9-3.2-6.8-0.6-10,2.8c-2.1,2.1-1.1,4.8,2.5,6.5c3.1,1.5,5.8,0.7,6-1.3C186.9,49.6,179.2,51.7,181.9,48.4z"/>
</g>
</svg>
