<?xml version="1.0" standalone="no"?>
<!DOCTYPE svg PUBLIC "-//W3C//DTD SVG 20010904//EN"
 "http://www.w3.org/TR/2001/REC-SVG-20010904/DTD/svg10.dtd">
<svg version="1.0" xmlns="http://www.w3.org/2000/svg"
 width="873.000000pt" height="266.000000pt" viewBox="0 0 873.000000 266.000000"
 preserveAspectRatio="xMidYMid meet">
<metadata>
Created by potrace 1.16, written by Peter Selinger 2001-2019
</metadata>
<g transform="translate(0.000000,266.000000) scale(0.100000,-0.100000)"
fill="#000000" stroke="none">
<path d="M0 1955 l0 -705 4365 0 4365 0 0 705 0 705 -4365 0 -4365 0 0 -705z
m490 60 l225 -225 -228 0 -227 0 0 225 c0 124 1 225 3 225 1 0 103 -101 227
-225z m640 205 c47 -24 60 -45 60 -99 0 -27 -7 -48 -23 -67 l-24 -27 32 -29
c42 -36 50 -78 26 -132 -27 -63 -63 -76 -205 -76 l-116 0 0 225 0 225 105 0
c86 0 113 -4 145 -20z m322 -95 c26 -61 51 -118 56 -129 6 -14 21 10 66 113
42 95 63 131 74 129 14 -3 47 -116 127 -425 5 -21 2 -23 -40 -23 l-44 0 -17
58 c-9 31 -23 83 -32 115 l-17 57 -49 -105 c-27 -58 -54 -105 -61 -105 -6 0
-34 48 -60 106 l-49 106 -31 -114 -31 -113 -48 -3 c-42 -3 -47 -1 -42 15 3 10
24 88 46 173 67 254 70 261 88 258 10 -2 35 -46 64 -113z m668 99 c32 -13 39
-21 35 -35 -3 -11 -8 -28 -11 -40 -4 -14 -11 -18 -22 -14 -79 32 -134 29 -182
-11 -86 -73 -46 -229 64 -249 30 -6 73 1 117 20 13 5 20 -2 29 -30 14 -41 10
-47 -39 -64 -108 -36 -232 13 -283 112 -29 57 -29 147 1 204 52 102 183 150
291 107z m569 -79 c60 -31 58 -125 -4 -151 -19 -8 -46 -14 -60 -14 -24 0 -25
-2 -25 -60 0 -53 -2 -60 -20 -60 -19 0 -20 7 -20 150 l0 150 50 0 c28 0 64 -7
79 -15z m1405 9 c9 -3 16 -18 16 -32 0 -24 -1 -24 -18 -9 -25 22 -78 22 -91 0
-14 -25 3 -49 50 -73 58 -30 79 -55 79 -92 -1 -37 -14 -59 -47 -76 -40 -22
-74 -16 -131 23 -1 1 0 9 4 18 5 14 10 13 39 -5 51 -29 94 -12 95 39 0 16 -13
31 -42 50 -69 43 -88 64 -88 95 0 41 32 68 79 68 22 0 46 -3 55 -6z m1667 -95
l84 -100 3 100 c2 93 4 101 22 101 19 0 20 -8 20 -150 0 -84 -4 -150 -9 -150
-5 0 -41 40 -80 89 -105 132 -101 131 -101 12 0 -94 -1 -101 -20 -101 -19 0
-20 7 -20 150 0 83 4 150 8 150 5 0 47 -45 93 -101z m-2833 11 l32 0 0 -100
c0 -83 -3 -102 -16 -107 -9 -3 -19 -1 -23 5 -4 7 -12 8 -21 2 -8 -6 -32 -10
-52 -10 -56 0 -98 41 -105 103 -5 43 -3 49 31 83 33 33 39 36 79 30 23 -4 57
-6 75 -6z m667 -6 c75 -35 82 -140 11 -183 -50 -32 -92 -27 -132 13 -42 42
-47 97 -13 140 37 47 80 56 134 30z m742 -4 c21 -12 35 -31 42 -54 27 -99 -64
-177 -151 -132 l-28 15 0 -60 c0 -46 -3 -59 -15 -59 -13 0 -15 23 -15 150 0
123 3 150 14 150 8 0 16 -5 18 -12 3 -8 11 -7 28 5 32 22 68 21 107 -3z m484
1 c22 -18 24 -27 24 -107 0 -76 -2 -89 -17 -92 -16 -3 -18 6 -18 77 0 109 -31
141 -85 86 -22 -21 -25 -33 -25 -95 0 -56 -3 -70 -15 -70 -12 0 -15 18 -15
105 0 87 3 105 15 105 8 0 15 -4 15 -9 0 -6 12 -3 28 5 37 19 65 18 93 -5z
m207 3 c12 -8 22 -10 22 -5 0 6 9 11 20 11 19 0 20 -7 20 -105 0 -155 -22
-195 -109 -195 -52 0 -71 8 -71 31 0 16 3 18 19 9 30 -15 82 -12 103 7 10 9
18 29 18 44 0 27 -1 27 -27 13 -81 -42 -173 46 -142 135 21 59 99 89 147 55z
m242 1 c34 -18 50 -43 50 -79 0 -26 0 -26 -84 -26 -80 0 -84 -1 -79 -20 7 -25
40 -50 68 -50 11 0 33 7 49 15 36 19 36 19 36 -3 0 -23 -39 -42 -86 -42 -53 0
-104 53 -104 108 0 83 78 134 150 97z m833 4 l27 0 0 -104 c0 -84 -3 -105 -14
-105 -8 0 -16 5 -18 11 -3 9 -9 9 -25 0 -51 -26 -115 -6 -142 46 -22 44 -14
92 24 130 32 32 39 35 78 29 23 -4 54 -7 70 -7z m730 0 c33 -17 57 -51 57 -81
l0 -28 -85 0 c-92 0 -100 -6 -60 -45 27 -28 58 -31 95 -10 32 18 40 18 40 1 0
-39 -81 -59 -135 -34 -59 27 -75 126 -27 170 41 39 76 47 115 27z m-461 -80
c3 -96 18 -115 66 -89 25 15 27 20 30 93 3 69 5 77 22 77 19 0 20 -7 20 -105
0 -107 -7 -124 -38 -93 -9 9 -15 9 -24 0 -19 -19 -70 -14 -95 10 -20 19 -23
31 -23 105 0 76 2 83 20 83 17 0 19 -8 22 -81z"/>
<path d="M2806 2029 c-37 -29 -37 -89 0 -118 15 -12 34 -21 44 -21 10 0 29 9
44 21 35 28 36 80 1 114 -30 30 -54 31 -89 4z"/>
<path d="M3513 2038 c-31 -15 -48 -70 -32 -100 28 -53 75 -62 114 -23 61 60
-6 161 -82 123z"/>
<path d="M4249 2038 c-37 -12 -55 -58 -39 -97 31 -77 141 -52 140 31 -1 48
-53 83 -101 66z"/>
<path d="M4935 2025 c-50 -49 -20 -125 48 -125 43 0 67 26 67 73 0 27 -7 41
-26 56 -35 27 -59 26 -89 -4z"/>
<path d="M5994 2040 c-11 -4 -27 -22 -34 -39 -16 -40 0 -83 37 -100 81 -37
142 93 62 134 -32 17 -36 17 -65 5z"/>
<path d="M3660 760 l0 -110 -40 21 c-70 37 -144 6 -181 -75 -23 -52 -23 -90 0
-142 34 -75 112 -112 175 -82 33 16 53 18 48 6 -1 -5 14 -8 33 -8 l35 0 0 250
0 250 -35 0 -35 0 0 -110z m-26 -161 c24 -19 27 -27 24 -77 -3 -46 -7 -58 -30
-75 -35 -26 -91 -17 -114 19 -20 30 -22 98 -3 120 31 37 85 43 123 13z"/>
<path d="M8100 760 l0 -109 -35 20 c-59 35 -134 11 -175 -56 -23 -37 -28 -132
-9 -168 38 -72 124 -104 185 -68 42 25 44 25 44 6 0 -10 10 -15 30 -15 l30 0
0 250 0 250 -35 0 -35 0 0 -110z m-26 -161 c23 -18 26 -28 26 -78 0 -55 -1
-59 -33 -76 -64 -34 -127 6 -127 79 1 81 74 122 134 75z"/>
<path d="M310 600 l0 -230 35 0 35 0 0 150 c0 83 3 150 8 150 4 0 36 -45 72
-100 35 -55 67 -100 70 -100 3 0 34 46 70 103 l65 102 3 -153 3 -153 37 3 c31
3 36 7 35 26 0 12 -1 115 -2 228 l-1 205 -32 -3 c-28 -3 -38 -15 -102 -115
-39 -62 -74 -113 -78 -113 -4 0 -39 52 -78 115 -69 110 -74 115 -106 115 l-34
0 0 -230z"/>
<path d="M2530 600 l0 -230 93 0 c155 1 215 45 204 154 -3 38 -10 55 -30 70
-25 21 -25 21 -6 45 43 53 8 154 -61 178 -19 7 -72 12 -117 12 l-83 1 0 -230z
m190 140 c46 -46 9 -100 -70 -100 l-50 0 0 60 0 60 50 0 c37 0 55 -5 70 -20z
m18 -186 c28 -19 29 -67 2 -94 -16 -16 -33 -20 -80 -20 l-60 0 0 65 0 65 58 0
c36 0 66 -6 80 -16z"/>
<path d="M6240 600 l0 -230 35 0 35 0 0 91 c0 88 1 90 22 87 16 -2 38 -28 76
-90 53 -86 55 -88 93 -88 21 0 39 2 39 5 0 2 -22 40 -50 83 -27 43 -50 83 -50
88 1 5 15 18 33 29 40 25 57 58 57 114 0 98 -62 141 -205 141 l-85 0 0 -230z
m194 139 c32 -25 35 -70 6 -99 -15 -15 -33 -20 -75 -20 l-55 0 0 70 0 70 49 0
c34 0 56 -6 75 -21z"/>
<path d="M5440 725 c0 -43 -1 -45 -30 -45 -28 0 -30 -3 -30 -35 0 -32 2 -35
30 -35 l30 0 0 -77 c0 -124 45 -184 125 -169 42 8 48 17 36 49 -7 18 -15 24
-33 21 -43 -8 -53 9 -53 93 l0 78 48 3 c46 3 47 4 47 37 0 33 -1 34 -47 37
l-48 3 0 43 c0 42 0 42 -37 42 l-38 0 0 -45z"/>
<path d="M895 675 c-22 -8 -41 -15 -42 -15 -1 0 3 -14 9 -31 7 -20 15 -28 25
-25 8 4 32 9 54 12 46 8 89 -15 89 -47 0 -17 -4 -19 -22 -12 -13 4 -45 8 -72
7 -42 -1 -54 -6 -78 -33 -51 -57 -33 -138 37 -161 42 -14 85 -6 120 21 l25 20
0 -20 c0 -17 6 -21 30 -21 34 0 32 -10 30 145 -1 105 -11 134 -50 155 -35 19
-112 21 -155 5z"/>
<path d="M1305 678 c-11 -6 -25 -19 -32 -27 -12 -16 -14 -14 -17 12 0 6 -16
13 -33 15 l-33 3 0 -155 0 -156 35 0 35 0 0 103 c0 121 8 139 66 141 33 1 41
5 52 30 10 24 10 31 0 38 -18 11 -49 9 -73 -4z"/>
<path d="M1750 683 c-8 -3 -25 -15 -37 -26 l-23 -20 0 21 c0 18 -6 22 -35 22
l-35 0 0 -155 0 -155 35 0 35 0 0 104 c0 82 3 108 16 120 25 25 61 30 89 12
24 -16 25 -20 25 -126 l0 -110 35 0 35 0 0 125 c0 122 -1 125 -27 155 -28 31
-81 46 -113 33z"/>
<path d="M2040 668 c-55 -29 -81 -71 -82 -136 0 -85 54 -154 131 -167 40 -7
99 6 133 29 15 11 15 13 -1 35 -17 22 -21 23 -55 11 -21 -7 -52 -9 -69 -6 -31
6 -67 32 -67 48 0 4 52 8 116 8 l117 0 -7 47 c-17 123 -115 183 -216 131z"/>
<path d="M3150 668 c-60 -31 -90 -77 -90 -140 0 -87 54 -151 135 -164 91 -13
185 68 185 161 0 54 -40 117 -90 143 -24 12 -56 22 -70 22 -14 0 -46 -10 -70
-22z m130 -73 c42 -38 26 -135 -25 -155 -43 -16 -65 -12 -96 19 -41 41 -40 91
1 133 27 26 36 30 67 25 19 -4 43 -13 53 -22z"/>
<path d="M4395 677 c-38 -18 -60 -43 -80 -90 -21 -50 -19 -86 8 -137 26 -50
90 -90 141 -90 33 0 116 34 116 47 0 4 -7 16 -15 26 -12 17 -18 18 -50 7 -20
-7 -51 -9 -68 -6 -31 6 -67 32 -67 48 0 4 50 8 110 8 l110 0 0 48 c0 52 -24
101 -63 126 -34 23 -106 29 -142 13z"/>
<path d="M4771 664 c-30 -25 -31 -25 -31 -5 0 17 -6 21 -35 21 l-35 0 0 -155
0 -155 35 0 35 0 0 104 c0 102 1 105 27 126 18 14 37 20 55 18 22 -4 29 1 39
25 10 24 10 30 -2 38 -25 16 -57 10 -88 -17z"/>
<path d="M4990 684 c-42 -15 -60 -29 -70 -55 -26 -61 12 -111 97 -130 65 -15
86 -35 58 -55 -26 -20 -64 -17 -107 6 l-38 20 -16 -25 c-21 -32 -9 -48 51 -71
122 -46 244 51 175 139 -14 18 -38 30 -76 38 -30 7 -62 18 -72 26 -16 12 -16
14 2 28 25 19 59 19 96 0 26 -14 29 -13 44 10 9 13 16 28 16 33 0 23 -122 50
-160 36z"/>
<path d="M6685 676 c-84 -38 -118 -141 -75 -227 22 -43 67 -75 116 -85 35 -6
100 8 128 29 19 14 19 15 1 39 -18 23 -20 24 -60 9 -48 -17 -86 -10 -115 22
l-21 22 115 3 116 3 0 42 c0 61 -28 108 -80 135 -50 25 -82 27 -125 8z"/>
<path d="M7030 668 c-60 -31 -90 -77 -90 -140 0 -59 19 -98 62 -132 47 -35 99
-42 153 -22 61 24 72 39 46 68 -21 22 -22 22 -52 4 -94 -56 -187 67 -110 145
33 33 74 38 109 13 22 -15 25 -15 47 6 29 28 25 36 -29 61 -54 24 -82 24 -136
-3z"/>
<path d="M7350 668 c-117 -59 -117 -227 0 -285 56 -29 84 -29 140 0 61 31 83
65 88 134 3 48 0 64 -20 93 -25 38 -97 80 -138 80 -14 0 -46 -10 -70 -22z
m131 -77 c64 -65 11 -173 -76 -157 -38 8 -75 52 -75 91 0 50 46 95 98 95 13 0
37 -13 53 -29z"/>
<path d="M7758 673 c-16 -10 -28 -21 -28 -25 0 -5 -4 -8 -10 -8 -5 0 -10 9
-10 20 0 16 -7 20 -30 20 l-30 0 0 -155 0 -155 35 0 35 0 0 110 0 109 31 17
c17 8 41 13 53 10 18 -4 24 1 34 26 14 37 14 36 -24 43 -18 3 -39 -1 -56 -12z"/>
<path d="M8330 679 c-42 -17 -60 -40 -60 -76 0 -64 25 -88 115 -108 39 -9 51
-16 53 -33 5 -33 -55 -40 -110 -13 l-43 21 -17 -23 c-24 -30 -23 -32 15 -56
50 -31 109 -37 162 -16 51 19 65 38 65 88 0 46 -39 79 -113 96 -45 10 -57 16
-57 32 0 27 45 36 96 17 41 -15 42 -14 53 9 16 36 14 39 -29 57 -45 18 -93 20
-130 5z"/>
<path d="M1450 524 l0 -155 35 3 c20 2 35 6 35 11 0 4 0 72 0 152 l0 145 -35
0 -35 0 0 -156z"/>
<path d="M2910 525 l0 -155 35 0 35 0 0 155 0 155 -35 0 -35 0 0 -155z"/>
<path d="M3840 525 l0 -155 35 0 35 0 0 155 0 155 -35 0 -35 0 0 -155z"/>
<path d="M3983 653 c8 -16 42 -85 76 -155 34 -71 65 -128 69 -128 7 0 152 288
152 303 0 4 -16 7 -35 7 -33 0 -35 -2 -75 -87 l-41 -88 -41 88 -41 87 -39 0
-39 0 14 -27z"/>
<path d="M5240 525 l0 -155 35 0 35 0 0 155 0 155 -35 0 -35 0 0 -155z"/>
<path d="M5655 660 c3 -11 36 -81 71 -157 68 -143 71 -160 35 -204 -17 -21
-23 -23 -48 -13 -27 10 -31 9 -46 -18 l-17 -29 35 -15 c19 -8 42 -14 52 -14
31 0 83 38 98 72 16 37 155 389 155 395 0 1 -17 3 -38 3 l-37 0 -42 -117 -41
-118 -56 118 -55 117 -36 0 c-32 0 -36 -3 -30 -20z"/>
</g>
</svg>
