<?xml version="1.0" standalone="no"?>
<!DOCTYPE svg PUBLIC "-//W3C//DTD SVG 20010904//EN"
 "http://www.w3.org/TR/2001/REC-SVG-20010904/DTD/svg10.dtd">
<svg version="1.0" xmlns="http://www.w3.org/2000/svg"
 width="2296.000000pt" height="369.000000pt" viewBox="0 0 2296.000000 369.000000"
 preserveAspectRatio="xMidYMid meet">
<metadata>
Created by potrace 1.16, written by Peter Selinger 2001-2019
</metadata>
<g transform="translate(0.000000,369.000000) scale(0.100000,-0.100000)"
fill="#000000" stroke="none">
<path d="M0 1845 l0 -1845 11409 0 c10179 0 11410 2 11421 15 12 14 32 24 103
53 l27 12 0 415 c0 410 0 415 -20 415 -13 0 -24 10 -30 25 -5 14 -17 28 -26
32 -15 6 -15 8 2 20 18 14 18 15 -6 35 -14 11 -32 25 -41 32 -27 19 -87 109
-91 136 -2 18 -16 31 -48 48 -56 28 -72 28 -86 -2 -11 -24 -3 -53 20 -68 6 -4
3 -14 -9 -27 -18 -21 -18 -22 5 -46 17 -18 21 -28 13 -36 -16 -16 -77 18 -97
56 -10 18 -27 35 -37 38 -10 3 -23 17 -29 31 -5 14 -14 26 -20 26 -7 0 -10 14
-8 33 2 24 8 33 24 35 22 3 34 35 34 86 0 45 -44 115 -95 151 -19 14 -19 14 5
14 33 0 100 -86 100 -129 0 -16 3 -29 8 -28 11 2 184 -13 203 -18 18 -5 39
-48 37 -74 -5 -58 4 -89 38 -128 25 -30 43 -42 62 -42 15 0 42 -9 60 -20 l32
-20 0 1310 0 1310 -11480 0 -11480 0 0 -1845z m20524 1648 c4 -10 16 -29 27
-43 20 -24 21 -24 16 -3 -3 12 0 26 7 32 7 6 31 -14 76 -65 36 -40 66 -80 68
-89 2 -8 12 -15 21 -15 23 0 38 -59 19 -72 -30 -19 -50 -4 -26 20 9 9 9 12 1
12 -7 0 -15 -4 -18 -10 -9 -15 -35 -12 -35 4 0 8 4 16 10 18 11 4 1 48 -11 48
-5 0 -8 -10 -6 -22 1 -14 -4 -23 -15 -26 -15 -3 -18 4 -18 34 0 30 -3 35 -12
26 -16 -16 -38 -15 -38 2 0 8 -11 24 -25 37 -13 13 -25 29 -25 36 0 6 -6 18
-13 25 -21 20 -37 55 -30 62 11 11 21 7 27 -11z m226 -293 c24 0 33 -15 26
-43 -4 -19 -11 -22 -49 -19 -38 3 -47 0 -66 -23 -18 -24 -21 -41 -21 -126 l0
-99 50 0 c49 0 50 -1 50 -30 0 -29 -1 -30 -50 -30 l-50 0 0 -200 0 -200 -35 0
-35 0 0 199 0 200 -47 3 c-44 3 -48 5 -51 31 -3 26 -2 27 47 27 l51 0 0 108
c0 88 3 113 20 139 22 36 66 63 105 63 14 0 25 6 26 13 0 10 2 10 6 0 2 -7 13
-13 23 -13z m-16077 -8 c3 -4 3 -18 0 -32 -4 -23 -9 -25 -43 -22 -77 8 -100
-32 -100 -170 l0 -78 55 0 c54 0 55 0 55 -30 0 -30 -1 -30 -55 -30 l-55 0 0
-200 0 -200 -35 0 -35 0 0 200 0 200 -45 0 c-43 0 -45 1 -45 30 0 29 2 30 45
30 l45 0 0 81 c0 110 15 162 57 199 29 26 41 30 93 30 32 0 61 -3 63 -8z
m-1263 -382 l0 -380 -30 0 -30 0 0 380 0 380 30 0 30 0 0 -380z m1980 199 l0
-181 35 30 c40 35 84 47 156 40 61 -6 97 -31 124 -84 17 -33 20 -64 23 -211
l4 -173 -36 0 -36 0 0 143 c-1 166 -9 214 -45 245 -34 29 -105 30 -149 3 -61
-38 -71 -69 -74 -238 l-4 -153 -34 0 -34 0 0 380 0 380 35 0 35 0 0 -181z
m6200 -199 l0 -380 -35 0 -35 0 0 380 0 380 35 0 35 0 0 -380z m2680 0 l0
-380 -30 0 -30 0 0 380 0 380 30 0 30 0 0 -380z m7220 198 l0 -182 28 26 c79
76 235 62 288 -25 16 -28 19 -56 22 -214 l4 -183 -36 0 -36 0 0 155 c0 168 -9
209 -51 239 -34 23 -99 20 -139 -7 -62 -41 -71 -69 -77 -237 l-6 -150 -34 0
-33 0 0 135 c0 113 -2 135 -15 135 -8 0 -15 6 -15 14 0 7 7 19 15 26 12 10 15
49 15 231 l0 219 35 0 35 0 0 -182z m-20880 -150 c0 -164 -4 -299 -10 -320
-14 -48 -55 -97 -97 -114 -39 -17 -130 -18 -170 -3 -39 14 -83 57 -100 98 -8
18 -13 35 -11 36 2 2 20 6 40 10 34 7 38 5 44 -19 21 -86 166 -97 206 -16 16
31 18 69 18 323 l0 287 40 0 40 0 0 -282z m6329 -8 c73 -169 128 -285 132
-278 4 7 53 119 109 248 56 129 110 254 120 278 19 41 20 42 69 42 l51 0 0
-355 0 -355 -35 0 -35 0 -2 302 -3 301 -130 -301 c-109 -253 -133 -302 -150
-302 -17 0 -41 49 -150 298 l-130 297 -3 -297 -2 -298 -40 0 -40 0 0 355 0
355 58 0 57 0 124 -290z m3480 265 c57 -34 75 -67 79 -148 3 -63 1 -76 -19
-101 -12 -15 -35 -36 -50 -45 l-27 -17 42 -23 c64 -33 89 -85 84 -170 -4 -79
-28 -120 -91 -154 -38 -19 -60 -22 -209 -25 l-168 -4 0 357 0 357 163 -4 c140
-3 167 -6 196 -23z m4658 -142 c39 -93 95 -225 124 -295 30 -71 59 -128 65
-128 6 0 19 -9 30 -21 78 -87 242 -48 208 49 -10 28 -28 36 -166 76 -73 21
-98 51 -98 116 0 84 58 130 165 130 63 0 123 -25 148 -63 15 -23 14 -24 -15
-42 -28 -16 -31 -16 -40 -1 -22 39 -106 58 -151 35 -29 -16 -37 -28 -37 -61 0
-35 26 -52 113 -72 37 -9 81 -23 98 -31 70 -37 78 -148 14 -204 -45 -39 -80
-45 -211 -34 l-107 8 -36 93 -36 92 -183 -2 -184 -3 -38 -90 -39 -90 -41 -3
-41 -3 14 33 c55 128 290 664 294 671 2 4 21 7 42 7 l38 0 70 -167z m-9987
-13 l0 -70 65 0 65 0 0 -30 0 -30 -65 0 -65 0 0 -159 c0 -189 3 -197 82 -188
47 6 48 6 48 -22 0 -17 -7 -31 -16 -35 -26 -10 -102 -7 -129 6 -48 22 -55 52
-55 233 l0 165 -50 0 c-49 0 -50 1 -50 30 0 29 1 30 50 30 l50 0 0 70 0 70 35
0 35 0 0 -70z m12970 0 l0 -70 65 0 65 0 0 -30 0 -30 -65 0 -65 0 0 -158 c0
-191 3 -198 79 -189 51 6 51 6 51 -22 0 -21 -6 -30 -22 -35 -37 -10 -95 -7
-123 6 -48 22 -55 52 -55 233 l0 165 -50 0 c-49 0 -50 1 -50 30 0 29 1 30 50
30 l50 0 0 70 0 70 35 0 35 0 0 -70z m3130 0 l0 -70 65 0 65 0 0 -30 0 -30
-62 0 -61 0 61 -64 c34 -35 62 -67 62 -70 0 -3 -15 -12 -32 -20 -31 -12 -35
-12 -65 11 l-33 24 0 -93 c0 -123 12 -143 81 -135 46 6 49 4 55 -19 4 -14 3
-28 0 -32 -4 -3 -35 -8 -70 -10 -59 -4 -66 -2 -97 26 l-34 30 -3 164 -3 164
-31 13 c-24 11 -35 11 -49 2 -16 -9 -19 -8 -20 6 -2 34 3 58 14 65 8 5 6 9 -6
14 -28 10 -19 27 13 22 21 -3 30 0 32 11 3 12 8 10 26 -9 l22 -24 0 62 0 62
35 0 35 0 0 -70z m-20071 -86 c171 -86 171 -342 0 -428 -109 -54 -254 -24
-319 66 -62 85 -62 211 0 296 65 90 210 120 319 66z m1060 9 c-1 -36 -14 -48
-53 -50 -48 -3 -81 -24 -106 -66 -17 -28 -20 -51 -20 -184 l0 -153 -35 0 -35
0 0 199 c0 109 -3 213 -6 230 -6 30 -6 31 30 31 32 0 36 -3 36 -25 0 -29 7
-31 29 -11 31 28 77 46 119 46 34 0 42 -3 41 -17z m418 -9 c57 -41 68 -82 71
-271 l4 -173 -36 0 -36 0 0 143 c-1 166 -9 214 -45 245 -52 45 -156 21 -197
-47 -21 -32 -23 -51 -26 -188 l-4 -153 -34 0 -34 0 0 230 0 230 35 0 c33 0 35
-2 35 -32 l0 -32 28 27 c40 38 69 47 144 44 49 -2 75 -8 95 -23z m519 0 c66
-49 69 -58 72 -260 l4 -184 -31 0 c-26 0 -31 4 -31 25 0 29 -12 32 -31 8 -36
-43 -160 -58 -226 -26 -71 33 -95 127 -50 193 36 54 87 74 199 78 l98 4 0 34
c0 20 -9 43 -24 60 -20 24 -32 28 -87 32 -54 3 -71 0 -111 -21 -46 -25 -46
-25 -64 -6 -17 19 -17 20 2 39 33 34 93 50 176 47 59 -2 83 -7 104 -23z m1059
4 c81 -42 125 -119 125 -218 0 -143 -94 -239 -234 -240 -114 0 -190 43 -232
134 -59 126 -1 284 121 331 51 19 178 15 220 -7z m2003 7 c75 -32 121 -101
125 -188 l2 -52 -194 -3 -193 -2 6 -32 c8 -40 49 -94 86 -113 33 -17 106 -20
143 -6 14 5 40 23 59 39 33 30 33 30 57 11 22 -18 22 -21 8 -43 -28 -42 -112
-76 -186 -76 -101 1 -174 42 -218 123 -24 44 -25 189 -1 232 24 44 68 85 113
106 50 23 142 25 193 4z m1687 -5 c63 -31 79 -66 82 -190 2 -58 4 -140 6 -182
l2 -78 -32 0 c-30 0 -33 3 -33 32 l0 32 -27 -26 c-37 -36 -73 -48 -139 -48
-130 0 -205 107 -144 207 33 54 90 76 208 81 l102 4 -6 37 c-3 21 -18 47 -35
64 -25 23 -38 27 -84 27 -55 0 -96 -12 -128 -39 -16 -13 -20 -13 -40 7 -20 21
-20 23 -4 39 52 52 196 70 272 33z m483 -11 c-3 -29 -6 -31 -47 -34 -53 -4
-90 -29 -113 -76 -15 -28 -18 -61 -18 -181 l0 -148 -35 0 -35 0 0 230 0 230
35 0 c32 0 35 -2 35 -31 0 -31 0 -31 18 -10 26 31 72 51 120 51 42 0 43 -1 40
-31z m659 5 c61 -45 68 -72 71 -266 l4 -178 -36 0 -36 0 0 161 c0 176 -9 216
-56 238 -66 30 -148 0 -188 -69 -18 -30 -21 -56 -25 -182 l-3 -148 -34 0 -34
0 0 230 0 230 35 0 c33 0 35 -2 35 -32 l0 -32 28 27 c40 38 69 47 144 44 50
-2 75 -8 95 -23z m548 0 c57 -29 98 -99 103 -175 l4 -59 -196 0 -197 0 6 -22
c15 -51 52 -102 85 -120 66 -35 172 -16 217 39 l22 27 26 -24 25 -24 -27 -29
c-44 -46 -98 -67 -179 -67 -55 0 -81 5 -115 23 -149 79 -169 309 -36 412 20
14 48 30 64 35 48 16 154 7 198 -16z m1700 4 c81 -42 125 -119 125 -218 0
-146 -94 -239 -240 -240 -72 0 -148 29 -187 71 -56 62 -77 165 -51 253 15 50
89 127 138 143 47 16 177 10 215 -9z m825 1 c95 -43 135 -107 135 -219 0 -85
-22 -139 -74 -183 -80 -67 -218 -77 -306 -22 -102 64 -141 207 -85 318 25 49
67 88 122 112 50 21 154 18 208 -6z m588 6 c20 -9 47 -26 59 -37 l23 -21 0 31
c0 30 2 32 36 32 l35 0 -3 -257 c-3 -244 -4 -261 -26 -308 -30 -65 -47 -83
-107 -111 -94 -45 -245 -26 -321 40 l-36 31 26 24 25 24 39 -31 c52 -41 82
-52 148 -52 113 0 167 56 181 190 l6 62 -47 -33 c-40 -28 -57 -34 -116 -37
-57 -4 -78 0 -122 21 -192 87 -191 339 2 426 55 25 145 27 198 6z m873 -20
c52 -37 55 -45 23 -69 -25 -18 -26 -18 -47 2 -80 72 -203 49 -254 -47 -92
-175 111 -359 254 -229 21 20 22 20 47 2 32 -24 29 -32 -22 -69 -54 -37 -144
-46 -221 -20 -154 51 -202 262 -89 390 49 56 101 75 195 72 61 -2 78 -7 114
-32z m436 9 c55 -41 60 -63 66 -262 l5 -183 -31 3 c-24 2 -33 8 -35 25 l-3 23
-36 -27 c-28 -21 -49 -28 -98 -31 -77 -5 -127 10 -159 49 -36 43 -42 88 -18
141 29 66 86 91 215 96 94 4 97 5 97 28 0 12 -4 34 -10 48 -22 58 -130 74
-213 32 -43 -21 -48 -22 -62 -6 -22 25 -19 38 17 56 55 29 80 33 160 31 60 -2
83 -7 105 -23z m1930 15 c28 -10 83 -57 83 -70 0 -4 -11 -14 -26 -23 -24 -17
-26 -16 -61 15 -33 28 -41 31 -86 26 -37 -3 -56 -11 -69 -27 -42 -51 -7 -89
105 -114 98 -22 133 -45 147 -95 12 -46 5 -84 -21 -122 -58 -83 -251 -78 -319
9 l-21 26 31 19 31 19 24 -26 c47 -51 135 -63 179 -23 62 56 34 106 -76 132
-106 26 -144 47 -158 90 -22 66 6 125 75 163 26 15 125 15 162 1z m543 -10
c95 -43 135 -107 135 -219 0 -81 -20 -134 -67 -177 -73 -68 -206 -84 -299 -35
-168 88 -166 342 3 426 67 33 161 36 228 5z m611 -14 c52 -37 55 -45 23 -69
-25 -18 -26 -18 -47 2 -80 72 -206 49 -254 -48 -63 -124 15 -269 145 -270 46
0 74 11 109 42 21 20 22 20 47 2 32 -24 29 -32 -22 -68 -32 -23 -56 -31 -102
-34 -116 -8 -202 38 -246 132 -43 92 -28 196 38 271 49 56 101 75 195 72 61
-2 78 -7 114 -32z m676 9 c55 -41 60 -63 66 -262 l5 -183 -31 3 c-24 2 -33 8
-35 25 l-3 23 -36 -27 c-28 -21 -49 -28 -98 -31 -77 -5 -127 10 -159 49 -36
43 -42 88 -18 141 29 66 86 91 215 96 94 4 97 5 97 28 0 12 -4 34 -10 48 -22
58 -130 74 -213 32 -43 -21 -48 -22 -62 -6 -22 25 -19 38 17 56 55 29 80 33
160 31 60 -2 83 -7 105 -23z m1132 0 c171 -85 172 -338 2 -426 -155 -81 -346
11 -366 176 -9 66 14 151 50 195 69 81 211 106 314 55z m581 3 c67 -44 75 -71
78 -269 l4 -178 -35 0 -35 0 -4 173 c-3 183 -9 205 -55 226 -65 30 -147 -1
-187 -69 -18 -30 -21 -56 -25 -182 l-3 -148 -34 0 -34 0 0 230 0 230 35 0 c33
0 35 -2 35 -32 l0 -31 23 21 c61 57 175 72 237 29z m831 -4 c130 -67 167 -240
77 -364 -86 -120 -310 -119 -397 1 -90 124 -49 305 82 366 75 35 165 33 238
-3z m2002 12 c75 -31 132 -121 125 -201 l-3 -39 -193 -3 -192 -2 6 -28 c19
-77 69 -123 144 -130 60 -5 112 11 149 48 26 27 30 28 50 14 30 -21 26 -38
-15 -72 -44 -36 -95 -52 -168 -52 -95 0 -165 42 -209 125 -30 57 -30 174 0
230 26 50 67 89 113 109 45 20 147 20 193 1z m-20843 -154 c0 -170 8 -211 45
-235 36 -24 106 -20 146 7 58 38 71 81 77 243 l5 144 28 0 29 0 0 -138 c0 -77
3 -180 6 -230 l7 -92 -37 0 c-34 0 -36 2 -36 32 l0 31 -22 -20 c-88 -80 -240
-69 -294 20 -16 28 -19 56 -22 215 l-4 182 36 0 36 0 0 -159z m7070 -71 l0
-230 -35 0 -35 0 0 230 0 230 35 0 35 0 0 -230z m2240 0 l0 -230 -30 0 -30 0
0 230 0 230 30 0 30 0 0 -230z m2280 0 l0 -230 -30 0 -30 0 0 230 0 230 30 0
30 0 0 -230z m4240 0 l0 -230 -30 0 -30 0 0 230 0 230 30 0 30 0 0 -230z
m1100 0 l0 -230 -35 0 -35 0 0 230 0 230 35 0 35 0 0 -230z m3272 -326 c35
-43 89 -108 121 -145 56 -66 70 -99 44 -99 -7 0 -18 5 -24 11 -8 8 -17 8 -32
0 -27 -15 -59 1 -67 34 -3 13 -13 27 -22 30 -20 6 -52 59 -52 86 0 10 -4 19
-10 19 -5 0 -15 11 -22 24 -7 14 -16 25 -20 25 -5 1 -15 1 -23 1 -22 0 -18 18
6 25 16 5 19 13 15 29 -6 23 0 36 15 36 5 0 37 -34 71 -76z m-11042 -624 l0
-380 -35 0 c-32 0 -35 2 -35 30 l0 30 -46 -33 c-40 -28 -55 -32 -122 -35 -68
-3 -83 0 -132 25 -171 88 -171 341 1 427 85 42 205 33 269 -20 l30 -26 0 181
0 181 35 0 35 0 0 -380z m2890 0 l0 -380 -35 0 c-32 0 -35 2 -35 31 l0 30 -32
-24 c-64 -47 -156 -60 -242 -35 -54 16 -128 90 -144 144 -27 92 -1 205 59 261
84 77 235 84 327 16 l32 -24 0 180 0 181 35 0 35 0 0 -380z m-5650 87 c0 -185
4 -255 15 -293 46 -157 256 -179 328 -34 21 43 22 59 25 308 l3 262 40 0 41 0
-4 -267 c-3 -257 -4 -270 -27 -321 -43 -95 -121 -142 -236 -142 -115 0 -193
47 -236 142 -23 51 -24 64 -27 321 l-4 267 41 0 41 0 0 -243z m3250 93 c0 -82
3 -150 6 -150 3 0 79 68 169 151 l164 150 49 -3 50 -3 -174 -158 c-96 -87
-174 -161 -174 -165 0 -4 83 -90 185 -192 l185 -185 -53 -3 -52 -4 -177 184
-178 183 0 -182 0 -183 -35 0 -35 0 0 355 0 355 35 0 35 0 0 -150z m-1750 -30
l0 -70 65 0 65 0 0 -30 0 -30 -65 0 -65 0 0 -153 c0 -188 6 -203 81 -194 46 6
49 4 55 -19 4 -14 3 -28 0 -32 -4 -3 -35 -8 -70 -10 -59 -4 -66 -2 -97 26
l-34 30 -3 176 -3 175 -47 3 c-43 3 -47 5 -50 31 -3 26 -2 27 47 27 l51 0 0
70 0 70 35 0 35 0 0 -70z m12829 -129 c61 -60 121 -111 133 -113 22 -3 22 -3
-5 -32 -18 -19 -33 -27 -47 -23 -12 3 -20 0 -20 -8 0 -28 -33 -23 -95 16 -40
26 -69 38 -77 33 -29 -18 -48 -13 -73 20 -25 33 -26 36 -10 60 10 14 26 26 37
26 15 0 19 6 17 28 -4 35 11 102 22 102 4 0 58 -49 118 -109z m-13399 46 c67
-44 75 -71 78 -269 l4 -178 -36 0 -36 0 0 149 c0 82 -3 162 -6 180 -22 109
-175 109 -238 1 -18 -30 -21 -56 -25 -182 l-3 -148 -34 0 -34 0 0 230 0 230
35 0 c34 0 35 -1 35 -37 0 -37 0 -37 16 -15 43 62 179 84 244 39z m1125 -3
c57 -29 98 -99 103 -175 l4 -59 -195 0 -195 0 10 -37 c22 -81 78 -123 162
-123 53 0 117 28 140 62 l16 22 26 -25 26 -24 -40 -36 c-104 -92 -277 -78
-359 29 -97 128 -41 336 104 382 48 16 154 7 198 -16z m2275 8 c20 -9 44 -34
57 -57 21 -37 23 -52 23 -217 l0 -178 -30 0 -30 0 0 129 c0 228 -22 281 -118
281 -62 0 -108 -29 -132 -83 -16 -35 -20 -66 -20 -184 l0 -143 -35 0 -35 0 0
199 c0 109 -3 213 -6 230 -6 30 -6 31 30 31 32 0 36 -3 36 -24 0 -30 16 -42
27 -21 28 50 164 72 233 37z m558 3 c20 -9 47 -26 59 -37 l23 -21 0 31 c0 30
2 32 35 32 l35 0 0 -235 c0 -129 -5 -256 -11 -284 -15 -72 -59 -128 -126 -158
-48 -22 -65 -25 -137 -21 -69 4 -92 9 -136 35 -69 38 -80 55 -56 82 23 25 42
27 50 6 3 -9 31 -28 62 -42 46 -21 67 -25 120 -21 105 7 152 61 162 186 l5 66
-31 -26 c-71 -59 -193 -65 -278 -12 -74 46 -108 100 -112 184 -6 109 40 184
143 231 50 23 142 25 193 4z m1243 -12 c170 -87 169 -341 -2 -427 -108 -54
-254 -25 -317 63 -62 86 -66 204 -9 288 68 101 212 134 328 76z m549 12 c15
-8 37 -26 48 -40 20 -25 21 -25 34 -7 62 89 238 81 294 -11 16 -28 19 -56 22
-214 l4 -183 -36 0 -36 0 0 161 c0 216 -16 249 -119 249 -24 0 -49 -8 -65 -21
-50 -39 -56 -65 -56 -234 l0 -155 -35 0 -35 0 0 148 c0 156 -9 211 -41 243
-41 41 -142 14 -181 -50 -21 -32 -23 -51 -26 -188 l-4 -153 -34 0 -34 0 0 230
0 230 35 0 c33 0 35 -2 35 -32 l0 -32 28 27 c15 14 38 30 52 36 38 15 117 13
150 -4z m-5440 -225 l0 -230 -35 0 -35 0 0 230 0 230 35 0 35 0 0 -230z m2610
0 l0 -230 -35 0 -35 0 0 230 0 230 35 0 35 0 0 -230z m10831 141 c21 -16 24
-28 23 -76 -2 -76 -15 -88 -55 -47 -28 29 -47 37 -73 33 -16 -3 -46 11 -46 21
0 20 80 88 104 88 13 0 34 -9 47 -19z"/>
<path d="M10140 2955 l0 -128 98 5 c110 5 153 22 177 68 20 39 19 79 -5 117
-28 47 -54 56 -167 61 l-103 5 0 -128z"/>
<path d="M10140 2630 l0 -143 108 5 c121 5 161 20 193 71 23 37 21 102 -5 142
-29 44 -72 58 -188 63 l-108 5 0 -143z"/>
<path d="M14886 2869 c-43 -99 -75 -183 -73 -185 2 -3 72 -3 155 -2 l150 3
-74 179 c-41 99 -76 181 -78 183 -2 2 -38 -78 -80 -178z"/>
<path d="M909 2817 c-71 -48 -101 -126 -80 -207 23 -87 98 -137 193 -128 132
13 201 167 125 279 -37 55 -82 79 -147 79 -43 0 -65 -6 -91 -23z"/>
<path d="M2964 2649 c-58 -13 -94 -49 -94 -93 0 -49 36 -76 104 -76 90 0 146
54 146 140 l0 40 -57 -1 c-32 -1 -77 -5 -99 -10z"/>
<path d="M3965 2818 c-50 -29 -85 -94 -85 -158 0 -64 35 -129 85 -158 51 -29
150 -27 192 4 56 42 68 69 68 154 0 85 -12 112 -68 154 -42 31 -141 33 -192 4z"/>
<path d="M6020 2833 c-37 -13 -100 -91 -100 -123 0 -6 55 -10 161 -10 l160 0
-6 23 c-23 75 -79 118 -155 116 -25 0 -52 -3 -60 -6z"/>
<path d="M7724 2649 c-72 -17 -109 -68 -88 -124 18 -47 129 -60 185 -22 39 26
54 54 63 115 l6 42 -62 -1 c-35 -1 -82 -5 -104 -10z"/>
<path d="M9352 2820 c-35 -21 -72 -74 -72 -102 0 -16 14 -18 155 -18 173 0
176 1 135 68 -29 47 -76 72 -135 72 -32 0 -62 -7 -83 -20z"/>
<path d="M11046 2818 c-113 -66 -113 -252 -1 -316 51 -29 150 -27 192 4 56 42
68 69 68 154 0 85 -12 112 -68 154 -42 31 -141 33 -191 4z"/>
<path d="M11895 2826 c-95 -41 -132 -179 -72 -267 37 -54 71 -73 140 -77 54
-3 67 0 103 24 60 39 79 76 79 154 0 79 -24 125 -83 158 -46 25 -119 29 -167
8z"/>
<path d="M12492 2823 c-18 -8 -44 -29 -57 -45 -100 -119 -5 -299 151 -286 145
12 211 177 116 290 -48 57 -141 75 -210 41z"/>
<path d="M13817 2646 c-55 -15 -83 -38 -92 -78 -6 -22 -1 -33 23 -58 25 -25
39 -30 77 -30 71 0 112 22 135 72 11 24 20 58 20 76 l0 32 -57 -1 c-32 0 -80
-6 -106 -13z"/>
<path d="M16265 2826 c-95 -41 -132 -179 -72 -267 35 -51 71 -72 132 -77 68
-6 104 9 149 58 56 62 59 173 7 237 -48 59 -144 80 -216 49z"/>
<path d="M17575 2645 c-53 -14 -95 -52 -95 -86 0 -11 13 -34 29 -50 24 -24 38
-29 76 -29 68 0 110 22 134 69 12 22 21 56 21 76 l0 35 -57 -1 c-32 0 -80 -6
-108 -14z"/>
<path d="M18675 2826 c-39 -18 -70 -52 -90 -98 -20 -49 -19 -94 4 -143 32 -70
86 -105 162 -105 175 0 241 226 97 333 -35 26 -130 33 -173 13z"/>
<path d="M20085 2826 c-59 -27 -105 -102 -105 -168 1 -77 67 -161 136 -174 82
-15 147 11 191 76 56 82 35 191 -49 253 -35 26 -130 33 -173 13z"/>
<path d="M22105 2822 c-38 -23 -51 -39 -70 -85 l-15 -37 161 0 161 0 -6 28
c-22 93 -149 144 -231 94z"/>
<path d="M10275 1726 c-58 -26 -105 -101 -105 -168 0 -41 30 -106 61 -135 72
-66 207 -54 268 23 69 88 37 229 -62 275 -49 22 -119 24 -162 5z"/>
<path d="M13145 1717 c-26 -14 -48 -37 -62 -67 -64 -126 15 -269 149 -270 58
0 95 13 131 48 42 39 57 75 57 132 0 57 -15 93 -57 132 -56 54 -148 64 -218
25z"/>
<path d="M9695 1722 c-38 -23 -51 -39 -70 -85 l-15 -37 160 0 c179 0 181 1
140 68 -42 69 -147 95 -215 54z"/>
<path d="M12548 1720 c-122 -65 -118 -255 5 -314 134 -63 284 58 252 204 -9
40 -60 99 -102 116 -45 19 -111 17 -155 -6z"/>
<path d="M13775 1726 c-39 -18 -70 -52 -90 -98 -20 -49 -19 -94 4 -143 32 -70
86 -105 162 -105 175 0 241 226 97 333 -35 26 -130 33 -173 13z"/>
</g>
</svg>
