<?xml version="1.0" standalone="no"?>
<!DOCTYPE svg PUBLIC "-//W3C//DTD SVG 20010904//EN"
 "http://www.w3.org/TR/2001/REC-SVG-20010904/DTD/svg10.dtd">
<svg version="1.0" xmlns="http://www.w3.org/2000/svg"
 width="659.000000pt" height="338.000000pt" viewBox="0 0 659.000000 338.000000"
 preserveAspectRatio="xMidYMid meet">
<metadata>
Created by potrace 1.16, written by Peter Selinger 2001-2019
</metadata>
<g transform="translate(0.000000,338.000000) scale(0.100000,-0.100000)"
fill="#000000" stroke="none">
<path d="M1900 3356 c-116 -26 -322 -107 -512 -202 -210 -105 -316 -125 -441
-83 -73 24 -122 53 -275 161 -152 108 -231 137 -276 103 -18 -14 -17 -17 26
-63 26 -28 64 -87 89 -138 23 -49 68 -134 99 -189 32 -55 65 -118 74 -139 25
-59 46 -162 45 -214 l-1 -47 -10 60 c-5 33 -11 62 -13 63 -9 9 -110 -56 -132
-85 -42 -54 -133 -310 -133 -371 0 -35 23 -36 108 -8 l80 27 25 72 c14 40 33
95 41 122 8 28 15 44 15 36 1 -23 -28 -128 -94 -338 -119 -378 -165 -626 -165
-893 0 -219 -13 -259 -162 -522 -48 -86 -100 -187 -114 -225 -49 -129 -42
-274 19 -364 34 -51 64 -47 102 16 17 27 82 103 146 170 63 66 135 148 158
183 23 34 43 62 45 62 2 0 30 -12 61 -26 52 -24 75 -28 228 -35 94 -4 174 -6
179 -3 36 23 -27 120 -174 268 -70 72 -135 146 -145 165 -47 95 -7 202 160
428 81 110 146 183 318 351 l216 212 27 -40 c36 -55 68 -66 123 -45 138 53
232 215 233 400 0 47 12 75 32 75 4 0 8 -35 8 -78 0 -133 42 -232 99 -232 72
0 189 122 231 242 31 89 37 224 15 322 l-17 77 39 49 c134 172 186 242 217
294 20 33 36 55 36 49 0 -6 26 -26 58 -43 31 -18 85 -52 120 -77 34 -24 62
-38 61 -31 0 15 -129 130 -188 167 -34 22 -39 30 -33 51 4 14 7 50 7 80 l0 55
-105 52 c-143 72 -232 93 -379 92 -64 -1 -141 -7 -171 -13z m179 -105 c24 -15
4 -39 -41 -51 -24 -6 -86 -28 -138 -47 -152 -57 -256 -71 -267 -37 -12 37 96
106 201 129 70 15 224 19 245 6z m424 -91 c38 0 39 -1 33 -27 -34 -146 -320
-521 -557 -729 l-114 -101 -26 172 c-15 95 -30 215 -34 266 l-7 94 38 74 c61
121 135 182 184 151 11 -7 36 2 90 32 155 86 135 80 249 74 57 -3 122 -6 144
-6z m-1048 -1032 c-5 -68 -3 -105 8 -140 l14 -46 -204 -197 c-112 -109 -207
-195 -210 -192 -8 9 22 52 70 100 44 43 77 86 77 101 0 21 -82 -5 -150 -48
-82 -50 -127 -64 -159 -47 -31 17 -27 59 14 154 79 183 178 265 441 367 55 21
100 39 102 39 2 1 0 -41 -3 -91z m-720 -1125 c11 -77 38 -115 181 -264 113
-117 164 -183 164 -214 0 -3 -62 -5 -138 -5 -152 0 -223 14 -277 56 -18 13
-34 24 -38 24 -3 0 -11 -16 -17 -36 -16 -46 -78 -124 -205 -254 -56 -58 -112
-122 -124 -142 -14 -23 -30 -38 -42 -38 -48 0 -79 142 -53 250 37 161 83 253
190 381 94 113 322 308 344 294 4 -3 11 -26 15 -52z"/>
<path d="M1491 3325 c-49 -22 -131 -94 -131 -116 0 -29 24 -23 150 39 135 67
154 92 68 92 -29 -1 -68 -7 -87 -15z"/>
<path d="M1380 3323 c-50 -8 -127 -37 -205 -76 -127 -63 -221 -140 -152 -124
87 20 208 46 241 52 29 5 56 23 110 73 39 37 73 70 74 74 4 8 -24 9 -68 1z"/>
<path d="M1078 3246 c-103 -36 -229 -98 -225 -110 2 -6 20 -17 39 -24 36 -14
36 -14 109 42 41 31 91 64 111 74 21 9 38 23 38 30 0 15 8 16 -72 -12z"/>
<path d="M2505 2971 c-15 -29 -14 -31 38 -100 28 -38 67 -96 86 -128 68 -116
83 -135 128 -161 143 -83 300 -229 374 -346 73 -116 82 -113 40 13 -87 259
-240 476 -441 623 -66 48 -194 128 -205 128 -3 0 -11 -13 -20 -29z"/>
<path d="M2470 2911 c0 -4 -22 -38 -50 -75 -27 -37 -50 -70 -50 -75 0 -4 19
-14 43 -21 23 -7 83 -30 132 -51 50 -21 93 -39 98 -39 26 0 -27 105 -114 223
-31 42 -59 60 -59 38z"/>
<path d="M570 2892 c-57 -18 -230 -188 -302 -297 -92 -139 -209 -398 -196
-437 2 -6 29 27 60 73 70 105 207 240 318 312 99 64 123 89 174 177 l38 65
-27 52 c-28 53 -40 63 -65 55z"/>
<path d="M2297 2680 l-48 -60 16 -59 c8 -32 15 -99 15 -149 0 -62 4 -93 13
-100 7 -6 73 -23 147 -37 73 -15 185 -42 248 -61 102 -31 117 -33 130 -20 14
13 13 23 -3 83 -31 116 -96 273 -128 310 -16 19 -53 46 -80 60 -69 34 -222 93
-244 93 -10 0 -39 -27 -66 -60z"/>
<path d="M430 2514 c-179 -126 -342 -338 -394 -513 -21 -71 -21 -105 -1 -97
13 5 13 2 -1 -25 -8 -17 -16 -57 -17 -89 -2 -72 -8 -70 171 -70 128 0 134 1
157 25 22 21 25 33 26 97 0 40 6 112 13 160 18 129 7 139 -97 87 -75 -38 -137
-80 -197 -133 l-45 -40 40 43 c50 53 135 111 231 156 41 19 80 45 88 58 8 12
23 56 34 97 12 41 35 113 52 160 44 120 46 130 24 130 -11 -1 -48 -21 -84 -46z"/>
<path d="M2743 2533 c3 -16 20 -66 37 -113 17 -47 41 -119 52 -160 11 -41 28
-83 37 -94 9 -10 52 -36 96 -58 103 -52 194 -117 238 -170 20 -24 38 -40 41
-37 13 12 -16 118 -53 196 -57 119 -113 197 -210 293 -86 85 -200 170 -228
170 -11 0 -14 -7 -10 -27z"/>
<path d="M2292 2267 c-10 -12 -10 -34 -2 -104 6 -48 15 -159 19 -247 9 -213
-15 -196 291 -196 228 0 238 1 265 22 27 21 27 22 21 107 -4 47 -12 124 -18
170 -19 138 -42 154 -317 221 -163 39 -242 48 -259 27z"/>
<path d="M2223 2171 c-54 -112 -170 -211 -249 -211 -16 0 -44 9 -63 21 -44 26
-71 19 -95 -26 -24 -44 -94 -110 -141 -132 -49 -23 -48 -65 2 -92 32 -16 559
-15 593 2 23 12 25 18 28 97 5 126 -21 411 -37 409 -3 0 -21 -31 -38 -68z"/>
<path d="M520 2185 c-38 -14 -74 -35 -86 -51 -25 -31 -43 -125 -51 -269 -6
-117 1 -133 63 -142 l40 -5 18 83 c20 95 92 354 107 380 5 10 9 20 9 23 0 12
-36 5 -100 -19z"/>
<path d="M2880 2120 c-11 -7 -12 -22 -2 -87 7 -43 15 -123 18 -178 9 -138 5
-135 175 -135 165 0 189 7 189 52 0 55 -32 129 -77 175 -77 79 -273 191 -303
173z"/>
<path d="M1402 1774 c-23 -19 -42 -40 -42 -45 0 -5 50 -9 110 -9 104 0 112 1
135 25 36 35 32 49 -12 42 -22 -3 -55 0 -78 8 -57 21 -67 19 -113 -21z"/>
<path d="M31 1701 c-18 -11 -19 -194 -2 -215 36 -43 305 -121 339 -99 9 6 16
21 15 34 -1 13 -5 74 -9 134 -9 161 -3 155 -182 155 -81 0 -153 -4 -161 -9z"/>
<path d="M401 1693 c-23 -16 -24 -18 -17 -130 6 -111 24 -183 45 -183 6 0 11
8 11 18 1 28 28 244 36 280 6 30 5 32 -23 32 -15 0 -39 -7 -52 -17z"/>
<path d="M1199 1593 c-144 -140 -217 -229 -200 -246 17 -17 144 -25 384 -26
266 -1 247 -15 247 188 0 135 -2 151 -21 175 -20 26 -22 26 -154 26 l-134 0
-122 -117z"/>
<path d="M1660 1690 c-18 -18 -20 -33 -20 -175 0 -210 -19 -195 248 -194 274
1 356 8 383 36 19 19 22 35 26 170 6 149 6 150 -18 166 -20 15 -60 17 -311 17
-275 0 -289 -1 -308 -20z"/>
<path d="M2339 1691 c-22 -17 -24 -28 -30 -167 -9 -183 -6 -188 93 -186 123 3
373 23 404 33 52 16 62 35 73 148 15 139 14 148 -9 171 -19 19 -33 20 -264 20
-224 0 -246 -2 -267 -19z"/>
<path d="M2925 1697 c-15 -12 -21 -37 -31 -148 -12 -128 -12 -135 7 -154 19
-19 19 -19 116 3 124 28 220 72 228 104 2 13 6 64 7 113 l3 90 -155 3 c-120 2
-160 -1 -175 -11z"/>
<path d="M3907 1103 c-14 -71 -23 -131 -20 -135 2 -5 13 -8 23 -8 22 0 40 27
41 62 1 19 3 18 16 -12 21 -48 42 -60 71 -41 11 6 9 18 -10 55 l-22 47 32 25
c17 14 32 32 32 40 0 22 -51 17 -78 -8 l-25 -23 6 25 c3 14 9 42 12 63 7 36 6
37 -22 37 l-30 0 -26 -127z"/>
<path d="M5267 1212 c-10 -10 -17 -26 -17 -35 0 -9 -9 -21 -20 -27 -21 -11
-27 -46 -9 -52 7 -2 7 -24 -2 -72 -11 -56 -17 -70 -36 -77 -14 -5 -23 -17 -23
-29 0 -16 7 -20 33 -20 48 0 65 24 83 118 11 53 22 82 30 82 12 0 34 29 34 44
0 3 -9 6 -20 6 -27 0 -15 28 13 32 14 2 23 11 25 26 3 20 -1 22 -36 22 -25 0
-45 -7 -55 -18z"/>
<path d="M1240 1209 c-129 -37 -211 -181 -196 -342 16 -178 124 -280 296 -280
119 0 213 52 261 145 41 81 47 227 11 318 -20 51 -70 106 -123 134 -45 25 -67
30 -134 32 -44 2 -96 -1 -115 -7z m161 -129 c53 -29 83 -167 56 -261 -22 -75
-55 -104 -117 -104 -62 0 -95 29 -117 104 -26 92 2 230 54 260 23 14 99 14
124 1z"/>
<path d="M2357 1206 c-139 -52 -205 -165 -195 -334 7 -124 59 -211 154 -258
60 -29 240 -28 307 3 47 22 48 22 42 3 -6 -19 -1 -20 78 -20 l84 0 18 60 18
60 88 0 89 0 17 -60 18 -60 83 0 c45 0 82 3 82 8 0 4 -44 140 -98 302 l-99
295 -89 3 -89 3 -95 -283 -95 -283 -3 73 c-2 39 -7 72 -11 72 -5 0 -32 -16
-60 -35 -84 -56 -152 -58 -213 -7 -42 35 -58 79 -58 154 1 122 55 188 156 188
44 0 61 -6 112 -40 33 -22 62 -40 66 -40 3 0 6 35 6 79 l0 79 -52 22 c-66 29
-203 38 -261 16z"/>
<path d="M3404 1212 c-13 -9 -58 -228 -49 -242 3 -6 33 -10 65 -10 49 0 61 3
70 20 l11 20 21 -20 c42 -39 128 -15 153 43 12 28 14 29 15 9 0 -36 43 -72 84
-72 95 0 149 155 67 190 -55 22 -115 -8 -140 -70 -10 -25 -10 -25 -10 7 -1 35
-39 73 -73 73 -59 0 -118 -61 -118 -122 0 -21 -3 -23 -40 -20 -22 2 -40 7 -40
11 0 3 9 44 19 91 19 84 16 100 -14 100 -5 0 -15 -4 -21 -8z"/>
<path d="M1660 906 l0 -306 85 0 85 0 0 110 c0 101 1 110 19 110 12 0 47 -37
101 -109 l81 -110 100 -3 c54 -2 99 0 99 5 0 4 -11 20 -24 35 -13 15 -58 70
-99 122 l-74 95 31 23 c49 36 76 89 76 150 0 74 -23 117 -79 150 -45 26 -51
27 -223 30 l-178 4 0 -306z m291 164 c14 -8 19 -21 19 -50 0 -57 -26 -80 -90
-80 l-50 0 0 70 0 70 51 0 c28 0 59 -5 70 -10z"/>
<path d="M5047 1194 c-4 -4 -7 -16 -7 -26 0 -19 -10 -21 -67 -18 -28 1 -33 -2
-39 -27 -14 -65 -27 -94 -46 -104 -20 -11 -21 -9 -15 27 4 22 9 54 13 72 6 30
5 32 -24 32 -29 0 -30 -2 -42 -68 -7 -37 -11 -76 -9 -87 5 -25 54 -43 77 -29
12 8 22 8 34 1 28 -18 44 8 59 91 7 42 15 69 17 60 2 -10 8 -18 13 -18 7 0 8
-20 4 -55 -5 -38 -4 -60 5 -70 18 -22 67 -19 80 4 16 31 12 43 -11 36 -20 -7
-21 -5 -15 25 3 18 6 38 6 46 0 7 10 14 23 16 29 4 38 48 9 48 -13 0 -18 7
-18 23 1 22 -31 36 -47 21z"/>
<path d="M4257 1154 c-4 -4 -23 -7 -44 -8 l-37 -1 -17 -85 c-9 -47 -15 -88
-12 -92 2 -5 13 -8 24 -8 20 0 25 10 50 90 9 29 21 46 33 48 16 4 17 0 10 -40
-12 -67 -11 -92 6 -95 28 -5 39 13 52 84 11 66 10 74 -7 93 -18 20 -45 26 -58
14z"/>
<path d="M4392 1145 c-79 -57 -66 -198 18 -181 21 4 29 2 24 -5 -3 -6 -25 -9
-48 -7 -38 2 -41 1 -41 -22 0 -22 5 -25 39 -28 51 -4 92 14 105 46 12 29 41
164 41 188 0 10 -10 14 -32 14 -18 -1 -44 2 -58 5 -15 4 -34 0 -48 -10z"/>
<path d="M4685 1150 c-38 -15 -67 -57 -72 -103 -5 -39 -2 -46 22 -65 69 -54
165 4 165 100 0 59 -57 93 -115 68z"/>
<path d="M5381 1147 c-38 -19 -62 -59 -64 -106 -1 -35 3 -47 22 -62 38 -31 87
-25 127 15 30 30 34 40 34 85 0 46 -3 52 -30 66 -35 18 -57 19 -89 2z"/>
<path d="M3725 838 c-14 -60 -45 -222 -45 -235 0 -10 9 -13 27 -11 23 3 29 10
41 58 7 30 18 61 24 67 15 19 41 16 34 -3 -3 -9 -9 -40 -12 -70 -7 -53 -6 -54
19 -54 16 0 28 7 31 18 14 43 26 127 20 144 -8 28 -38 40 -69 28 -23 -9 -26
-8 -22 7 19 71 19 73 -13 73 -23 0 -31 -5 -35 -22z"/>
<path d="M4120 856 c0 -2 -11 -58 -25 -126 -14 -68 -25 -127 -25 -131 0 -12
47 -11 55 0 4 8 55 244 55 257 0 2 -13 4 -30 4 -16 0 -30 -2 -30 -4z"/>
<path d="M5114 833 c-11 -52 -14 -55 -35 -50 -54 14 -109 -46 -109 -120 0 -63
39 -90 91 -63 13 8 19 7 19 0 0 -6 10 -10 23 -8 19 3 24 15 44 108 30 141 30
160 -2 160 -19 0 -26 -7 -31 -27z"/>
<path d="M5725 848 c-12 -31 -52 -248 -47 -253 3 -3 16 -5 28 -5 16 0 25 7 29
23 14 58 45 221 45 233 0 18 -49 19 -55 2z"/>
<path d="M6010 856 c0 -2 -11 -58 -25 -126 -14 -68 -25 -127 -25 -132 0 -5 12
-8 28 -6 23 3 29 10 38 49 15 61 31 89 50 89 12 0 15 -6 10 -25 -4 -14 -9 -46
-13 -71 -6 -46 -6 -46 23 -42 26 3 29 8 41 63 18 86 16 103 -11 120 -17 12
-30 13 -48 6 -25 -9 -25 -9 -17 27 12 52 12 52 -21 52 -16 0 -30 -2 -30 -4z"/>
<path d="M3377 833 c-6 -12 10 -220 17 -232 4 -6 21 -11 37 -11 27 0 33 6 58
63 31 67 38 64 43 -13 3 -43 5 -45 36 -48 33 -3 33 -3 87 112 30 64 55 121 55
126 0 6 -13 10 -28 10 -26 0 -31 -7 -63 -82 l-34 -83 -3 83 -3 82 -33 0 c-31
0 -34 -3 -69 -82 l-36 -83 -1 83 0 82 -29 0 c-17 0 -32 -3 -34 -7z"/>
<path d="M5272 738 c-12 -57 -22 -114 -22 -127 0 -23 1 -24 71 -19 80 6 114
25 141 79 18 34 23 93 12 124 -11 27 -60 45 -122 45 l-59 0 -21 -102z"/>
<path d="M3943 780 c-33 -14 -63 -68 -63 -117 0 -63 39 -90 91 -63 13 8 19 7
19 0 0 -6 10 -10 23 -8 23 3 37 43 53 145 l6 44 -33 -2 c-19 -1 -43 0 -54 4
-11 3 -30 2 -42 -3z"/>
<path d="M4235 776 c-42 -18 -66 -59 -68 -113 -2 -34 3 -48 17 -59 27 -19 100
-18 120 2 29 28 19 40 -31 40 -61 -1 -68 20 -8 26 55 7 75 22 75 58 0 47 -52
70 -105 46z"/>
<path d="M4410 783 c-57 -22 -68 -83 -20 -111 42 -24 37 -36 -11 -29 -39 5
-40 4 -37 -21 3 -24 8 -27 45 -30 35 -3 48 2 69 23 33 33 28 63 -14 91 -35 24
-28 40 14 30 26 -7 45 17 28 34 -13 12 -56 20 -74 13z"/>
<path d="M4643 780 c-51 -20 -86 -148 -50 -178 7 -6 42 -10 77 -9 l64 2 18 85
c9 47 17 89 18 93 0 4 -15 7 -32 6 -18 -1 -42 0 -53 4 -11 3 -30 2 -42 -3z"/>
<path d="M4881 781 c-8 -5 -29 -7 -47 -4 -32 5 -32 5 -43 -48 -7 -30 -15 -73
-18 -97 -6 -43 -6 -44 23 -40 26 3 30 8 41 57 11 53 36 91 49 78 4 -4 3 -33
-3 -65 -6 -31 -9 -60 -6 -64 9 -15 52 -8 57 10 26 91 25 172 -4 172 -4 0 -14
2 -22 5 -7 3 -19 1 -27 -4z"/>
<path d="M5553 776 c-37 -17 -59 -48 -68 -96 -16 -87 83 -124 151 -56 28 28
34 41 34 78 0 69 -52 102 -117 74z"/>
<path d="M5887 783 c-4 -3 -25 -6 -47 -5 -34 2 -40 -2 -45 -21 -7 -30 -45
-218 -45 -223 0 -2 13 -4 30 -4 25 0 30 5 35 33 6 30 9 33 38 29 22 -2 41 3
59 17 55 43 62 147 12 169 -29 14 -29 14 -37 5z"/>
<path d="M6367 783 c-4 -3 -25 -6 -47 -5 -44 2 -39 11 -64 -110 -7 -37 -11
-70 -8 -73 3 -3 16 -5 28 -5 23 0 27 7 39 70 7 36 31 70 48 70 9 0 7 -30 -9
-107 -6 -31 -5 -33 20 -33 32 0 45 27 53 117 6 61 5 63 -21 73 -32 12 -31 12
-39 3z"/>
<path d="M6510 783 c-58 -21 -66 -74 -18 -116 l33 -29 -42 5 c-36 4 -43 2 -49
-15 -8 -25 10 -38 54 -38 43 0 71 15 82 46 12 32 -2 62 -36 74 -34 13 -20 33
17 25 26 -6 29 -4 29 18 0 30 -32 44 -70 30z"/>
<path d="M4630 226 c0 -124 2 -145 16 -150 9 -4 22 -1 30 5 9 7 19 7 34 -1 28
-15 64 -6 90 22 31 34 29 130 -5 163 -26 27 -54 31 -86 15 -18 -10 -19 -7 -19
40 0 49 -1 50 -30 50 l-30 0 0 -144z"/>
<path d="M5830 227 c0 -155 3 -162 50 -150 19 5 21 12 18 45 l-4 39 18 -23
c10 -13 20 -30 23 -39 6 -19 39 -31 61 -22 16 6 18 24 6 38 -5 6 -19 27 -31
47 l-22 37 32 36 c35 39 35 39 1 50 -18 5 -29 -1 -55 -28 l-32 -36 0 72 0 72
-32 3 -33 3 0 -144z"/>
<path d="M3421 277 c-67 -39 -67 -163 1 -194 38 -17 99 -7 128 22 34 35 36
123 4 156 -27 26 -99 35 -133 16z"/>
<path d="M3613 283 c-9 -3 -13 -34 -13 -103 0 -86 2 -99 18 -102 43 -10 52 1
52 67 0 66 14 91 44 79 13 -5 16 0 16 25 0 36 -22 51 -50 33 -10 -6 -22 -7
-31 -1 -15 10 -18 10 -36 2z"/>
<path d="M3794 280 c-35 -14 -54 -50 -54 -103 0 -83 64 -125 143 -92 11 5 17
18 17 37 0 25 -3 29 -17 23 -46 -19 -62 -17 -74 9 -10 20 -10 32 0 52 11 24
15 26 51 20 38 -6 40 -5 40 19 0 38 -55 56 -106 35z"/>
<path d="M3950 277 c-14 -7 -26 -23 -28 -35 -4 -25 2 -26 47 -11 27 10 36 9
49 -4 14 -15 12 -17 -28 -23 -73 -12 -105 -69 -61 -108 21 -19 73 -27 93 -15
7 4 18 4 24 -2 6 -5 19 -7 28 -3 13 5 16 21 16 88 0 44 -4 86 -8 92 -22 33
-88 43 -132 21z"/>
<path d="M4112 281 c-11 -7 -9 -26 14 -102 15 -52 28 -95 28 -96 1 -1 12 -4
26 -7 36 -9 50 4 63 59 l13 47 12 -50 c9 -34 19 -52 33 -55 43 -11 55 2 82 93
32 104 32 106 11 114 -27 10 -52 -12 -59 -52 -11 -64 -21 -67 -34 -8 -9 40
-18 57 -32 61 -29 10 -46 -9 -60 -68 l-12 -52 -15 55 c-16 66 -36 83 -70 61z"/>
<path d="M4463 279 c-24 -13 -53 -66 -53 -98 0 -41 27 -87 59 -100 43 -18 118
-7 126 19 10 31 -2 39 -40 29 -23 -7 -41 -6 -55 1 -36 19 -21 30 40 30 l60 0
0 39 c0 22 -8 48 -18 61 -20 25 -86 35 -119 19z"/>
<path d="M4988 274 c-36 -19 -48 -43 -48 -98 0 -68 32 -101 100 -101 69 0 100
32 100 105 0 63 -6 78 -41 95 -35 19 -76 18 -111 -1z"/>
<path d="M5180 282 c-6 -2 -10 -43 -10 -102 0 -78 3 -99 15 -104 33 -12 45 4
45 63 0 65 9 84 42 86 18 1 23 7 23 31 0 28 -1 29 -52 29 -29 0 -57 -1 -63 -3z"/>
<path d="M5338 270 c-26 -20 -28 -25 -26 -95 1 -41 -1 -77 -5 -81 -13 -13 -7
-61 9 -75 10 -8 39 -14 69 -13 66 0 105 23 105 63 0 39 -28 61 -78 61 -22 0
-43 4 -46 8 -3 5 7 7 22 4 36 -5 82 31 82 64 0 13 5 24 10 24 6 0 10 11 10 25
0 18 -5 25 -19 25 -10 0 -38 3 -62 6 -36 5 -49 2 -71 -16z"/>
<path d="M5623 283 c-9 -3 -13 -30 -13 -84 0 -71 3 -83 25 -104 25 -26 59 -32
84 -16 9 6 22 6 32 0 10 -5 25 -6 33 -3 13 5 16 24 16 104 0 87 -2 99 -19 105
-40 12 -51 -3 -51 -75 0 -53 -4 -69 -16 -74 -31 -12 -34 -5 -34 69 0 41 -4 75
-9 75 -5 0 -15 2 -23 4 -7 3 -19 2 -25 -1z"/>
</g>
</svg>
