<?xml version="1.0" encoding="utf-8"?>
<!-- Generator: Adobe Illustrator 19.2.1, SVG Export Plug-In . SVG Version: 6.00 Build 0)  -->
<svg version="1.1" id="layer" xmlns="http://www.w3.org/2000/svg" xmlns:xlink="http://www.w3.org/1999/xlink" x="0px" y="0px"
	 viewBox="0 0 652 652" style="enable-background:new 0 0 652 652;" xml:space="preserve">
<style type="text/css">
	.st0{fill:#4392CE;}
	.st1{fill:#74B443;}
	.st2{fill:#005AA7;}
</style>
<path class="st0" d="M151,339.2L151,339.2c24.6-19.1,53.3-32.1,83.9-38c-10.1-57.8-65.2-96.5-123-86.4c-16.5,2.9-32.1,9.6-45.5,19.7
	C107.5,256.4,138.1,294.2,151,339.2"/>
<path class="st0" d="M61.5,238.2c-44.8,38-50.3,105-12.4,149.8c10.4,12.2,23.3,21.9,38,28.4C106.6,356.3,97.2,290.5,61.5,238.2"/>
<path class="st1" d="M91.9,418.7c54.7,21.2,116.2-6,137.3-60.7c4.7-12.3,7.2-25.3,7.2-38.5c0-4.1-0.2-8.1-0.8-12.1
	C177.6,329.2,127.5,368,91.9,418.7"/>
<path class="st2" d="M272.8,251.9h16.3c2.3,0,4.5,0.2,6.8,0.6c2.1,0.3,4.1,1.2,5.8,2.4c1.7,1.1,3,2.6,4,4.4c1,2.1,1.5,4.4,1.4,6.8
	c0.1,2.5-0.5,5.1-1.6,7.4c-1,1.8-2.4,3.3-4.2,4.4c-1.9,1.1-4,1.8-6.2,2.2c-2.4,0.4-4.9,0.6-7.4,0.6h-6.2v20.3h-8.7V251.9z
	 M286.7,273c1.3,0,2.5,0,3.8-0.2c1.3-0.1,2.6-0.3,3.8-0.8c1.1-0.4,2-1.1,2.8-2c0.8-1.1,1.1-2.4,1-3.8c0.1-1.3-0.3-2.5-1-3.6
	c-0.5-0.9-1.4-1.6-2.4-2c-1.1-0.4-2.2-0.8-3.4-1c-1.2-0.2-2.4-0.2-3.6-0.2h-6.2v13.7h5.2L286.7,273z"/>
<path class="st2" d="M307,284.1c-0.1-2.5,0.4-4.9,1.4-7.2c0.9-2.1,2.2-4,3.8-5.6c1.7-1.5,3.6-2.7,5.8-3.6c4.5-1.6,9.4-1.6,13.9,0
	c2.2,0.8,4.1,2,5.8,3.6c1.7,1.6,2.9,3.5,3.8,5.6c1.9,4.6,1.9,9.7,0,14.3c-0.9,2.1-2.2,4-3.8,5.6c-1.7,1.5-3.6,2.7-5.8,3.6
	c-4.5,1.6-9.4,1.6-13.9,0c-2.2-0.8-4.1-2-5.8-3.6c-1.7-1.6-2.9-3.5-3.8-5.6C307.4,289,306.9,286.6,307,284.1 M315.1,284.1
	c0,1.3,0.2,2.6,0.6,3.8c0.4,1.2,1.1,2.3,2,3.2c0.8,0.9,1.8,1.7,3,2.2c2.5,1.1,5.4,1.1,7.9,0c1.1-0.5,2.2-1.2,3-2.2
	c0.8-0.9,1.5-2,2-3.2c0.4-1.2,0.6-2.5,0.6-3.8c0-1.3-0.2-2.6-0.6-3.8c-0.4-1.2-1.1-2.3-2-3.2c-0.8-0.9-1.8-1.7-3-2.2
	c-2.5-1.1-5.4-1.1-7.9,0c-1.1,0.5-2.2,1.2-3,2.2c-0.8,0.9-1.5,2-2,3.2C315.3,281.6,315.1,282.8,315.1,284.1"/>
<path class="st2" d="M346.9,256.3c0-1.3,0.5-2.5,1.4-3.4c1.9-2.2,5.2-2.4,7.3-0.5c2.2,1.9,2.4,5.2,0.5,7.3c-0.1,0.1-0.2,0.2-0.3,0.3
	c-1,0.9-2.4,1.4-3.8,1.4c-1.4,0.1-2.8-0.4-3.8-1.4C347.5,259,347,257.7,346.9,256.3 M348.1,267.6h8.3v33h-8.3V267.6z"/>
<path class="st2" d="M365.4,267.6h7.9v5.4h0.2c0.8-1.7,2.1-3.2,3.6-4.4c1.9-1.3,4.2-1.9,6.6-1.8c1.9-0.1,3.8,0.4,5.6,1.2
	c1.5,0.7,2.7,1.7,3.8,3c1,1.2,1.7,2.6,2,4.2c0.4,1.6,0.6,3.3,0.6,5V301h-8.3v-16.7c0-1,0-2-0.2-3c-0.1-1.1-0.3-2.2-0.8-3.2
	c-0.4-0.9-1-1.8-1.8-2.4c-1-0.7-2.2-1-3.4-1c-1.2,0-2.3,0.2-3.4,0.6c-0.9,0.4-1.8,1-2.4,1.8c-0.6,0.8-1,1.7-1.4,2.6
	c-0.2,1-0.4,2.1-0.4,3.2V301h-8.1V267.6z"/>
<path class="st2" d="M399.4,274.6v-7h6.8v-9.5h8.3v9.5h9.1v7h-9.1v14.5c0,1.4,0.3,2.8,1,4c0.6,1,1.8,1.4,3.8,1.4
	c0.8,0,1.6,0,2.4-0.2c0.7-0.1,1.4-0.4,2-0.8v7c-1,0.5-2.1,0.8-3.2,0.8c-1.1,0.2-2.2,0.2-3.4,0.2c-1.8,0.1-3.6-0.2-5.4-0.8
	c-1.3-0.4-2.5-1.1-3.4-2.2c-0.9-1.1-1.4-2.4-1.6-3.8c-0.4-1.7-0.5-3.4-0.4-5.2v-15.1h-7L399.4,274.6z"/>
<path class="st2" d="M447.5,251.9h19.1c1.8,0,3.6,0.2,5.4,0.6c1.7,0.4,3.3,1.1,4.8,2.2c1.4,1,2.6,2.3,3.4,3.8
	c0.9,1.7,1.4,3.6,1.4,5.6c0.1,2.5-0.8,4.9-2.4,6.8c-1.7,1.8-3.8,3.1-6.2,3.8v0.2c1.4,0.2,2.9,0.6,4.2,1.2c2.6,1.3,4.5,3.5,5.6,6.2
	c0.6,1.4,0.8,2.9,0.8,4.4c0.1,2.3-0.5,4.6-1.6,6.6c-1,1.8-2.4,3.2-4.2,4.2c-1.9,1-3.9,1.8-6,2.4c-2.2,0.4-4.5,0.6-6.8,0.6h-17.5
	L447.5,251.9L447.5,251.9z M456.2,271.6h7.9c2.3,0.1,4.6-0.4,6.6-1.6c2.5-2.1,2.9-5.9,0.7-8.4c-0.2-0.3-0.5-0.5-0.7-0.7
	c-2.2-1.2-4.7-1.7-7.2-1.6h-7.2v12.3L456.2,271.6z M456.2,293.3h7.9c1.2,0,2.4,0,3.6-0.2c1.2-0.1,2.4-0.5,3.6-1
	c1-0.5,1.9-1.3,2.6-2.2c0.7-1.1,1-2.4,1-3.8c0.3-2.1-0.8-4.2-2.6-5.4c-2.4-1.2-5.1-1.7-7.8-1.6h-8.3L456.2,293.3L456.2,293.3z"/>
<rect x="490.2" y="248.5" class="st2" width="8.3" height="52.1"/>
<path class="st2" d="M537.1,300.6h-7.8v-5.4h-0.2c-0.8,1.7-2.1,3.2-3.6,4.4c-1.9,1.3-4.2,1.9-6.6,1.8c-1.9,0-3.8-0.3-5.6-1
	c-1.5-0.6-2.8-1.7-3.8-3c-1-1.2-1.7-2.6-2-4.2c-0.4-1.6-0.6-3.3-0.6-5v-20.9h8.3v16.7c0,1,0,2,0.2,3c0.1,1.1,0.3,2.2,0.8,3.2
	c0.4,0.9,1,1.8,1.8,2.4c1,0.7,2.2,1,3.4,1c1.2,0,2.4-0.2,3.6-0.6c0.9-0.4,1.8-1,2.4-1.8c0.6-0.8,1-1.7,1.4-2.6
	c0.2-1,0.4-2.1,0.4-3.2v-18.1h8.3v33.2L537.1,300.6z"/>
<path class="st2" d="M551.8,286.9c0.1,2.3,1.2,4.4,3,5.8c1.7,1.4,3.8,2.1,6,2c1.8,0.1,3.6-0.4,5.2-1.2c1.4-0.9,2.7-2,3.8-3.2l6,4.6
	c-1.7,2.2-4,4-6.6,5.2c-2.4,1-5,1.6-7.6,1.6c-2.4,0-4.7-0.4-7-1.2c-2.2-0.8-4.1-2-5.8-3.6c-1.6-1.6-2.9-3.5-3.8-5.6
	c-1.9-4.6-1.9-9.7,0-14.3c0.9-2.1,2.2-4,3.8-5.6c1.6-1.6,3.6-2.8,5.8-3.6c2.2-0.8,4.6-1.2,7-1.2c2.2,0,4.3,0.4,6.4,1.2
	c1.9,0.8,3.6,2,5,3.6c1.4,1.6,2.5,3.5,3.2,5.6c0.8,2.5,1.2,5.1,1.2,7.8v2.2L551.8,286.9z M568.7,280.7c0.1-2.1-0.7-4.2-2.2-5.8
	c-1.7-1.5-3.9-2.3-6.2-2.2c-2.2,0-4.3,0.7-6,2.2c-1.5,1.6-2.4,3.6-2.6,5.8H568.7z"/>
<path class="st2" d="M306.8,354.5c-0.8,1.1-1.8,2.2-2.8,3.2c-1.2,1-2.4,1.8-3.8,2.6c-1.4,0.8-3,1.4-4.6,1.8
	c-1.8,0.4-3.6,0.6-5.4,0.6c-3.2,0-6.4-0.6-9.3-1.8c-2.8-1.1-5.3-2.8-7.4-5c-2.1-2.1-3.8-4.6-5-7.4c-2.4-6-2.4-12.7,0-18.7
	c2.4-5.5,6.8-10,12.3-12.3c3-1.2,6.1-1.8,9.3-1.8c2.9,0,5.7,0.6,8.3,1.6c2.8,1.1,5.3,3,7.2,5.4l-4,3c-0.5-0.9-1.2-1.6-2-2.2
	c-0.8-0.8-1.8-1.4-2.8-2c-1.1-0.6-2.2-1-3.4-1.4c-1.2-0.4-2.4-0.6-3.6-0.6c-2.7,0-5.3,0.5-7.8,1.6c-4.4,2-7.8,5.7-9.3,10.3
	c-1.6,4.8-1.6,9.9,0,14.7c1.5,4.6,4.9,8.4,9.3,10.3c2.4,1.1,5.1,1.6,7.8,1.6c1.2,0,2.4-0.2,3.6-0.4c1.2-0.2,2.3-0.5,3.4-1
	c1.1-0.5,2.2-1.2,3.2-2c1.1-0.9,2-2,2.8-3.2L306.8,354.5z"/>
<path class="st2" d="M340.1,346.7c0,2.1-0.4,4.2-1.2,6.2c-1.4,3.8-4.4,6.8-8.1,8.1c-2,0.8-4.2,1.2-6.4,1.2c-2.2,0-4.3-0.4-6.4-1.2
	c-3.8-1.4-6.8-4.4-8.1-8.1c-0.8-2-1.2-4-1.2-6.2c0-2.1,0.4-4.2,1.2-6.2c1.4-3.8,4.4-6.8,8.1-8.1c4.1-1.6,8.6-1.6,12.7,0
	c3.8,1.4,6.8,4.4,8.1,8.1C339.8,342.5,340.2,344.6,340.1,346.7 M335.6,346.7c0-1.6-0.2-3.1-0.8-4.6c-0.5-1.4-1.3-2.6-2.2-3.8
	c-1.1-1-2.3-1.9-3.6-2.6c-1.4-0.6-3-1-4.6-1c-1.6,0-3.1,0.3-4.6,1c-1.4,0.6-2.6,1.4-3.6,2.6c-1,1.1-1.7,2.4-2.2,3.8
	c-1.1,3-1.1,6.2,0,9.1c0.5,1.4,1.3,2.6,2.2,3.8c1.1,1,2.3,1.9,3.6,2.6c1.4,0.6,3,1,4.6,1c1.6,0,3.1-0.3,4.6-1
	c1.4-0.6,2.6-1.4,3.6-2.6c1-1.1,1.8-2.4,2.2-3.8C335.3,349.8,335.5,348.3,335.6,346.7"/>
<path class="st2" d="M349.9,332c0,0.8,0.2,1.6,0.2,2.4v2.4h0.2c0.4-0.9,1-1.6,1.8-2.2l2.4-1.8c0.8-0.4,1.8-0.8,2.8-1.2
	c1-0.2,2-0.4,3-0.4c3.1-0.3,6.1,0.8,8.3,3c2,2.4,3,5.4,2.8,8.5v18.7h-4.2v-16.3c0.2-2.6-0.5-5.3-1.8-7.6c-1.2-1.8-3.2-2.6-6.4-2.6
	c-0.6,0-1.2,0.1-1.8,0.2c-1.1,0.2-2.1,0.7-3,1.4c-1.1,0.9-2.1,2.1-2.8,3.4c-0.9,2-1.3,4.2-1.2,6.4v15.1h-4.2v-23.1c0-1,0-2-0.2-3
	c0-1.2-0.2-2.4-0.2-3.6h4.2L349.9,332z"/>
<path class="st2" d="M395.2,339c-0.6-1.2-1.5-2.2-2.6-3c-1.1-0.7-2.4-1.1-3.8-1c-0.7,0-1.5,0-2.2,0.2c-0.7,0.1-1.4,0.4-2,0.8
	c-0.6,0.4-1,0.8-1.4,1.4c-0.4,0.6-0.6,1.3-0.6,2c-0.1,1.2,0.4,2.3,1.4,3c1.4,0.8,2.8,1.3,4.4,1.6l4.2,1c2,0.4,3.8,1.4,5.2,2.8
	c1.4,1.4,2.1,3.4,2,5.4c0,1.4-0.3,2.9-1,4.2c-0.6,1.1-1.5,2.1-2.6,2.8c-1.1,0.8-2.4,1.3-3.8,1.6c-1.4,0.4-2.8,0.6-4.2,0.6
	c-2.2,0-4.3-0.4-6.4-1.2c-2-0.9-3.8-2.5-5-4.4l3.6-2.4c0.8,1.3,1.9,2.4,3.2,3.2c1.4,0.8,3,1.3,4.6,1.2c0.9,0,1.7,0,2.6-0.2
	c0.8-0.1,1.5-0.4,2.2-0.8c0.6-0.4,1.2-1,1.6-1.6c0.4-0.7,0.6-1.4,0.6-2.2c0.1-1.3-0.5-2.5-1.6-3.2c-1.3-0.7-2.6-1.2-4-1.6l-4-1
	c-0.6-0.2-1.2-0.4-2-0.6c-0.9-0.3-1.8-0.8-2.6-1.4c-0.9-0.6-1.6-1.5-2.2-2.4c-0.6-1.1-0.9-2.3-0.8-3.6c0-1.4,0.3-2.8,1-4
	c0.6-1.1,1.4-2,2.4-2.8c1.1-0.8,2.3-1.3,3.6-1.6c1.3-0.4,2.6-0.6,4-0.6c2,0,3.9,0.4,5.8,1.2c1.8,0.8,3.3,2.3,4.2,4.2L395.2,339z"/>
<path class="st2" d="M408.9,347.9c0.1,1.4,0.5,2.8,1,4.2c0.6,1.3,1.4,2.4,2.4,3.4c0.9,1,2.1,1.8,3.4,2.2c1.3,0.6,2.7,0.9,4.2,0.8
	c2,0,4-0.5,5.8-1.6c1.5-0.9,2.8-2.1,3.8-3.6l3.2,2.6c-1.6,2-3.5,3.6-5.8,4.8c-4.2,1.8-8.9,1.9-13.1,0.2c-1.8-0.7-3.4-1.8-4.8-3.2
	c-1.4-1.4-2.5-3.1-3.2-5c-0.8-2-1.2-4-1.2-6.2c0-2.1,0.4-4.2,1.2-6.2c0.7-1.9,1.8-3.6,3.2-5c1.4-1.3,3-2.4,4.8-3.2
	c3.8-1.6,8.1-1.6,11.9,0c1.7,0.7,3.2,1.8,4.4,3.2c1.3,1.4,2.2,3,2.8,4.8c0.6,1.9,1,3.8,1,5.8v2H408.9z M429,344.5
	c0.2-2.5-0.8-5-2.6-6.8c-1.9-1.9-4.5-2.8-7.2-2.6c-1.4,0-2.7,0.2-4,0.8c-1.2,0.5-2.4,1.3-3.4,2.2c-1,0.8-1.7,1.8-2.2,3
	c-0.5,1.1-0.8,2.3-0.8,3.6H429V344.5z"/>
<path class="st2" d="M440.7,341.2v-4c0-1.4-0.2-3.2-0.2-5.2h4.2v5.6h0.2l1.2-2.4c0.6-0.8,1.2-1.4,2-2c0.8-0.6,1.8-1.1,2.8-1.4
	c1.1-0.4,2.4-0.6,3.6-0.6c1.1,0,2.1,0.2,3.2,0.4l-0.8,4.2c-0.8-0.3-1.6-0.4-2.4-0.4c-1.4,0-2.9,0.3-4.2,1c-1.1,0.5-2.1,1.3-2.8,2.4
	c-0.8,0.9-1.3,1.9-1.6,3c-0.4,1-0.6,2.1-0.6,3.2v16.7h-4.2v-20.5H440.7z"/>
<polygon class="st2" points="477.1,361.4 472.5,361.4 460.4,332 465.3,332 474.9,356.9 474.9,356.9 484.4,332 489,332 "/>
<path class="st2" d="M512.2,343.3v-0.8c0-5.2-2.6-7.6-7.6-7.6c-3.3,0-6.5,1.2-8.9,3.4l-2.6-3c3.4-3.1,7.9-4.7,12.5-4.4
	c1.4,0,2.8,0.2,4.2,0.6c1.3,0.3,2.5,1,3.4,2c1,0.9,1.8,2,2.4,3.2c0.6,1.5,0.9,3.1,0.8,4.8v13.1c0,1.2,0,2.4,0.2,3.6
	c0.2,1.2,0.2,2.2,0.4,3h-4c-0.2-0.8-0.2-1.6-0.2-2.4v-2.4h-0.4c-1,1.8-2.5,3.3-4.4,4.2c-1.9,0.9-4,1.4-6.2,1.4
	c-1.3,0-2.6-0.2-3.8-0.6c-1.1-0.4-2.2-0.9-3.2-1.6c-1-0.7-1.8-1.7-2.2-2.8c-0.6-1.2-0.9-2.5-0.8-3.8c-0.1-2,0.5-4,1.8-5.6
	c1.2-1.4,2.8-2.4,4.6-3c1.9-0.6,3.9-1,6-1.2c2.2-0.2,4-0.2,5.8-0.2L512.2,343.3z M510.1,346.7c-1.3,0-2.7,0-4,0.2
	c-1.5,0.2-3.1,0.4-4.6,0.8c-1.4,0.4-2.6,1-3.8,1.8c-1,0.8-1.6,2.1-1.6,3.4c0,0.9,0.2,1.8,0.6,2.6c0.4,0.7,1,1.3,1.6,1.8
	c0.7,0.4,1.4,0.8,2.2,1c0.8,0.2,1.7,0.2,2.6,0.2c1.4,0.1,2.7-0.2,4-0.8c1-0.5,2-1.2,2.8-2c0.8-0.8,1.4-1.8,1.6-3
	c0.4-1.2,0.6-2.5,0.6-3.8v-2.2H510.1z"/>
<path class="st2" d="M540.7,335.8h-8.5v17.5c0,0.9,0.1,1.8,0.4,2.6c0.2,0.6,0.5,1.1,0.8,1.6c0.4,0.4,0.9,0.7,1.4,0.8
	c0.6,0.2,1.2,0.2,1.8,0.2c0.7,0,1.5-0.2,2.2-0.4c0.7-0.1,1.4-0.4,2-0.8l0.2,3.8c-1.8,0.8-3.7,1.1-5.6,1c-0.9,0-1.7-0.2-2.6-0.4
	c-0.9-0.2-1.7-0.6-2.4-1.2c-0.8-0.6-1.4-1.4-1.8-2.4c-0.5-1.3-0.8-2.6-0.8-4v-18.7h-6.2V332h6.2v-8.3h4.2v8.3h8.5v3.8H540.7z"/>
<path class="st2" d="M555,320.5c0,0.8-0.4,1.6-1,2.2c-0.5,0.5-1.2,0.8-2,0.8c-0.8,0-1.6-0.3-2.2-0.8c-1.2-1.1-1.3-2.9-0.3-4.1
	c0.1-0.1,0.2-0.2,0.3-0.3c0.6-0.6,1.4-0.8,2.2-0.8c0.7,0,1.5,0.3,2,0.8C554.6,318.9,554.9,319.7,555,320.5 M554,361.4h-4.2V332h4.2
	V361.4z"/>
<path class="st2" d="M592.5,346.7c0,2.1-0.4,4.2-1.2,6.2c-1.4,3.8-4.4,6.8-8.1,8.1c-2,0.8-4.2,1.2-6.4,1.2c-2.2,0-4.3-0.4-6.4-1.2
	c-3.8-1.4-6.8-4.4-8.1-8.1c-0.8-2-1.2-4-1.2-6.2c0-2.1,0.4-4.2,1.2-6.2c1.4-3.8,4.4-6.8,8.1-8.1c4.1-1.6,8.6-1.6,12.7,0
	c3.8,1.4,6.8,4.4,8.1,8.1C592.2,342.5,592.6,344.6,592.5,346.7 M588.2,346.7c0-1.6-0.2-3.1-0.8-4.6c-0.5-1.4-1.3-2.6-2.2-3.8
	c-1.1-1-2.3-1.9-3.6-2.6c-1.4-0.6-3-1-4.6-1c-1.6,0-3.1,0.3-4.6,1c-1.4,0.5-2.5,1.4-3.4,2.6c-1,1.1-1.7,2.4-2.2,3.8
	c-1.1,3-1.1,6.2,0,9.1c0.5,1.4,1.3,2.6,2.2,3.8c1,1,2.2,1.8,3.4,2.6c1.4,0.6,3,1,4.6,1c1.6,0,3.1-0.3,4.6-1c1.4-0.6,2.6-1.4,3.6-2.6
	c1-1.1,1.8-2.4,2.2-3.8C587.8,349.8,588.1,348.3,588.2,346.7"/>
<path class="st2" d="M602.5,332c0,0.8,0.2,1.6,0.2,2.4v2.4h0.2c0.4-0.9,1-1.6,1.8-2.2l2.4-1.8c0.8-0.4,1.8-0.8,2.8-1.2
	c1-0.2,2-0.4,3-0.4c3.1-0.3,6.1,0.8,8.3,3c2,2.4,3,5.4,2.8,8.5v18.7h-4.2v-16.3c0.2-2.6-0.5-5.3-1.8-7.6c-1.2-1.8-3.2-2.6-6.4-2.6
	c-0.6,0-1.2,0.1-1.8,0.2c-1.1,0.2-2.1,0.7-3,1.4c-1.1,0.9-2.1,2.1-2.8,3.4c-0.9,2-1.3,4.2-1.2,6.4v15.1h-4.2v-23.1c0-1,0-2-0.2-3
	c0-1.2-0.2-2.4-0.2-3.6h4.2V332z"/>
<path class="st2" d="M294,385.1c-1.9-2.9-5.3-4.6-8.7-4.4c-1.1,0-2.3,0.2-3.4,0.4c-1.1,0.3-2.1,0.8-3,1.4c-1,0.6-1.7,1.5-2.2,2.6
	c-0.6,1.1-0.9,2.3-0.8,3.6c-0.1,1.8,0.6,3.5,1.8,4.8c1.2,1.2,2.6,2.1,4.2,2.8c1.8,0.8,3.7,1.5,5.6,2c1.9,0.6,3.8,1.3,5.6,2.2
	c1.7,0.9,3.1,2.2,4.2,3.8c1.3,1.9,1.9,4.1,1.8,6.4c0,1.9-0.4,3.7-1.2,5.4c-0.8,1.6-1.9,2.9-3.4,4c-1.4,1.2-3,2-4.8,2.6
	c-1.7,0.6-3.5,0.8-5.4,0.8c-2.7,0-5.3-0.5-7.8-1.6c-2.5-1.1-4.7-2.9-6.4-5.2l4.2-3c1,1.6,2.4,3,4,4c1.9,1,4,1.5,6.2,1.4
	c1.2,0,2.3-0.2,3.4-0.6c1.1-0.3,2.1-0.8,3-1.6c0.9-0.7,1.6-1.6,2.2-2.6c0.6-1,0.8-2.2,0.8-3.4c0-1.4-0.3-2.8-1-4
	c-0.6-1.1-1.5-1.9-2.6-2.6c-1.1-0.7-2.3-1.3-3.6-1.8c-1.4-0.4-2.8-1-4.2-1.4c-1.4-0.4-2.8-1-4.2-1.6c-1.3-0.6-2.5-1.3-3.6-2.2
	c-1.1-0.9-2-2.1-2.6-3.4c-0.7-1.6-1-3.4-1-5.2c-0.1-1.9,0.4-3.8,1.2-5.6c0.8-1.6,1.9-2.9,3.4-4c1.4-1,3-1.8,4.6-2.4
	c1.7-0.6,3.5-0.8,5.4-0.8c2.4,0,4.7,0.4,7,1.2c2.2,0.9,4.2,2.4,5.8,4.2L294,385.1z"/>
<path class="st2" d="M325.8,399.8c-0.8-1.1-1.9-2-3-2.8c-1.3-0.8-2.8-1.2-4.4-1.2c-1.6-0.1-3.1,0.2-4.6,0.8
	c-1.3,0.6-2.5,1.4-3.6,2.4c-1,1.1-1.8,2.4-2.2,3.8c-0.6,1.5-0.9,3.1-0.8,4.8c0,1.6,0.2,3.2,0.8,4.8c0.5,1.4,1.2,2.7,2.2,3.8
	c1,1,2.2,1.8,3.6,2.4c1.5,0.6,3,0.8,4.6,0.8c1.5,0,3.1-0.4,4.4-1.2c1.2-0.7,2.2-1.7,3-2.8l3.4,2.6c-1.3,1.7-3,2.9-5,3.8
	c-1.8,0.8-3.8,1.2-5.8,1.4c-2.2,0-4.5-0.4-6.6-1.2c-3.8-1.4-6.8-4.4-8.1-8.1c-0.7-2-1.1-4.1-1-6.2c0-2.1,0.3-4.2,1-6.2
	c1.4-3.8,4.4-6.8,8.1-8.1c2.1-0.8,4.3-1.2,6.6-1.2c2,0,4,0.4,5.8,1.4c1.9,0.9,3.6,2.2,5,3.8L325.8,399.8z"/>
<path class="st2" d="M340.5,381.5c0,0.8-0.4,1.6-1,2.2c-0.5,0.5-1.2,0.8-2,0.8c-0.7,0-1.5-0.3-2-0.8c-1.2-1.1-1.3-2.9-0.3-4.1
	c0.1-0.1,0.2-0.2,0.3-0.3c0.5-0.5,1.2-0.8,2-0.8c0.7,0,1.5,0.3,2,0.8C340.3,379.8,340.6,380.6,340.5,381.5 M339.5,422.4h-4.2v-29.6
	h4.2V422.4z"/>
<path class="st2" d="M351.3,408.7c0.1,1.4,0.5,2.8,1,4.2c0.6,1.3,1.4,2.4,2.4,3.4c0.9,1,2.1,1.8,3.4,2.2c1.3,0.6,2.7,0.9,4.2,0.8
	c2,0,4-0.5,5.8-1.6c1.5-0.9,2.8-2.1,3.8-3.6l3.2,2.6c-1.6,2-3.5,3.6-5.8,4.8c-2.1,1-4.4,1.4-6.8,1.4c-2.1,0-4.2-0.4-6.2-1.2
	c-1.8-0.7-3.4-1.8-4.8-3.2c-1.4-1.4-2.5-3.1-3.2-5c-0.8-2-1.2-4-1.2-6.2c0-2.1,0.4-4.2,1.2-6.2c0.7-1.9,1.8-3.6,3.2-5
	c1.4-1.3,3-2.4,4.8-3.2c3.8-1.6,8.1-1.6,11.9,0c1.7,0.7,3.2,1.8,4.4,3.2c1.2,1.4,2.2,3,2.8,4.8c0.6,1.9,1,3.8,1,5.8v2H351.3z
	 M371.3,405.3c0.1-2.6-0.8-5.1-2.6-7c-1.9-1.9-4.5-2.8-7.2-2.6c-1.4,0-2.7,0.2-4,0.8c-1.2,0.5-2.4,1.3-3.4,2.2c-1,0.8-1.7,1.8-2.2,3
	c-0.5,1.1-0.8,2.3-0.8,3.6H371.3z"/>
<path class="st2" d="M387.2,392.8c0,0.8,0.2,1.6,0.2,2.4v2.4h0.2c0.4-0.9,1-1.6,1.8-2.2l2.4-1.8c0.8-0.4,1.8-0.8,2.8-1.2
	c1-0.2,2-0.4,3-0.4c3.1-0.3,6.1,0.8,8.3,3c2,2.4,3,5.4,2.8,8.5v18.7h-4.2v-16.3c0.2-2.6-0.5-5.3-1.8-7.6c-1.2-1.8-3.2-2.6-6.4-2.6
	c-0.6,0-1.2,0.1-1.8,0.2c-1.1,0.2-2.1,0.7-3,1.4c-1.1,0.9-2.1,2.1-2.8,3.4c-0.9,2-1.3,4.2-1.2,6.4v15.1h-4.4v-26
	c0-1.2-0.2-2.4-0.2-3.6h4.2V392.8z"/>
<path class="st2" d="M438.5,399.8c-0.8-1.1-1.9-2-3-2.8c-1.3-0.8-2.8-1.2-4.4-1.2c-1.6-0.1-3.1,0.2-4.6,0.8
	c-1.3,0.6-2.5,1.4-3.6,2.4c-1,1.1-1.8,2.4-2.2,3.8c-0.6,1.5-0.9,3.1-0.8,4.8c0,1.6,0.2,3.2,0.8,4.8c0.5,1.4,1.2,2.7,2.2,3.8
	c1,1,2.2,1.8,3.6,2.4c1.5,0.6,3,0.8,4.6,0.8c1.5,0,3.1-0.4,4.4-1.2c1.2-0.7,2.2-1.7,3-2.8l3.4,2.6c-1.3,1.7-3,2.9-5,3.8
	c-1.8,0.8-3.8,1.2-5.8,1.4c-2.2,0-4.5-0.4-6.6-1.2c-3.8-1.4-6.8-4.4-8.1-8.1c-0.7-2-1.1-4.1-1-6.2c0-2.1,0.3-4.2,1-6.2
	c1.4-3.8,4.4-6.8,8.1-8.1c2.1-0.8,4.3-1.2,6.6-1.2c2,0,4,0.4,5.8,1.4c1.9,0.9,3.6,2.2,5,3.8L438.5,399.8z"/>
<path class="st2" d="M449.8,408.7c0.1,1.4,0.5,2.8,1,4.2c0.6,1.3,1.4,2.4,2.4,3.4c0.9,1,2.1,1.8,3.4,2.2c1.3,0.6,2.7,0.9,4.2,0.8
	c2,0,4-0.5,5.8-1.6c1.5-0.9,2.8-2.1,3.8-3.6l3.2,2.6c-1.6,2-3.5,3.6-5.8,4.8c-2.1,1-4.4,1.4-6.8,1.4c-2.1,0-4.2-0.4-6.2-1.2
	c-1.8-0.7-3.4-1.8-4.8-3.2c-1.4-1.4-2.5-3.1-3.2-5c-0.8-2-1.2-4-1.2-6.2c0-2.1,0.4-4.2,1.2-6.2c0.7-1.9,1.8-3.6,3.2-5
	c1.4-1.3,3-2.4,4.8-3.2c3.8-1.6,8.1-1.6,11.9,0c1.7,0.7,3.2,1.8,4.4,3.2c1.2,1.4,2.2,3,2.8,4.8c0.6,1.9,1,3.8,1,5.8v2L449.8,408.7z
	 M469.9,405.3c0.1-2.6-0.8-5.1-2.6-7c-1.9-1.9-4.5-2.8-7.2-2.6c-1.4,0-2.7,0.2-4,0.8c-1.2,0.5-2.4,1.3-3.4,2.2c-1,0.8-1.7,1.8-2.2,3
	c-0.5,1.1-0.8,2.3-0.8,3.6H469.9z"/>
</svg>
