<?xml version="1.0" standalone="no"?>
<!DOCTYPE svg PUBLIC "-//W3C//DTD SVG 20010904//EN"
 "http://www.w3.org/TR/2001/REC-SVG-20010904/DTD/svg10.dtd">
<svg version="1.0" xmlns="http://www.w3.org/2000/svg"
 width="170.000000pt" height="98.000000pt" viewBox="0 0 170.000000 98.000000"
 preserveAspectRatio="xMidYMid meet">
<metadata>
Created by potrace 1.16, written by Peter Selinger 2001-2019
</metadata>
<g transform="translate(0.000000,98.000000) scale(0.100000,-0.100000)"
fill="#000000" stroke="none">
<path d="M309 776 c-86 -30 -133 -74 -180 -166 -32 -63 -32 -164 0 -238 33
-73 115 -147 189 -168 239 -70 451 149 375 387 -23 72 -107 158 -177 182 -58
20 -156 21 -207 3z m142 -117 c19 -6 43 -14 54 -19 11 -5 30 -12 43 -15 21 -6
27 -25 24 -74 0 -8 5 -20 13 -25 29 -24 25 -88 -8 -131 -4 -5 -16 -22 -28 -37
-23 -32 -72 -44 -113 -29 -20 8 -26 16 -22 28 9 22 -11 33 -62 33 -49 0 -82
14 -82 35 0 8 -7 18 -17 23 -12 7 -14 17 -10 41 4 17 2 31 -3 31 -12 0 -50 82
-43 93 3 5 15 0 27 -11 53 -48 100 -49 110 -1 7 34 39 69 65 69 10 0 33 -5 52
-11z"/>
</g>
</svg>
